<?xml version="1.0" encoding="UTF-8" standalone="no"?><svg xmlns="http://www.w3.org/2000/svg" xmlns:xlink="http://www.w3.org/1999/xlink" contentScriptType="application/ecmascript" contentStyleType="text/css" height="867px" preserveAspectRatio="none" style="width:956px;height:867px;background:#FFFFFF;" version="1.1" viewBox="0 0 956 867" width="956px" zoomAndPan="magnify"><defs><filter height="300%" id="fgprh2s4ny9jl" width="300%" x="-1" y="-1"><feGaussianBlur result="blurOut" stdDeviation="2.0"/><feColorMatrix in="blurOut" result="blurOut2" type="matrix" values="0 0 0 0 0 0 0 0 0 0 0 0 0 0 0 0 0 0 .4 0"/><feOffset dx="4.0" dy="4.0" in="blurOut2" result="blurOut3"/><feBlend in="SourceGraphic" in2="blurOut3" mode="normal"/></filter></defs><g><text fill="#000000" font-family="sans-serif" font-size="18" lengthAdjust="spacing" textLength="178" x="382.5" y="16.708">[Code] User Entities</text><!--MD5=[a85ef66161f820356d55879b1ece6697]
cluster org.springframework.jdbc.core--><polygon fill="#FFFFFF" filter="url(#fgprh2s4ny9jl)" points="498,694.4531,750,694.4531,757,716.75,939,716.75,939,860.4531,498,860.4531,498,694.4531" style="stroke:#000000;stroke-width:1.5;"/><line style="stroke:#000000;stroke-width:1.5;" x1="498" x2="757" y1="716.75" y2="716.75"/><text fill="#000000" font-family="sans-serif" font-size="14" font-weight="bold" lengthAdjust="spacing" textLength="246" x="502" y="709.4482">org.springframework.jdbc.core</text><!--MD5=[d25c967fbb1e16689327a07e778e268c]
cluster namedparam--><polygon fill="#FFFFFF" filter="url(#fgprh2s4ny9jl)" points="647,737.4531,757,737.4531,764,759.75,915,759.75,915,836.4531,647,836.4531,647,737.4531" style="stroke:#000000;stroke-width:1.5;"/><line style="stroke:#000000;stroke-width:1.5;" x1="647" x2="764" y1="759.75" y2="759.75"/><text fill="#000000" font-family="sans-serif" font-size="14" font-weight="bold" lengthAdjust="spacing" textLength="104" x="651" y="752.4482">namedparam</text><!--MD5=[58506b7fc782ff127a1a962d1768a9cc]
cluster edu.tec.ic6821.blog--><polygon fill="#FFFFFF" filter="url(#fgprh2s4ny9jl)" points="16,26.9531,180,26.9531,187,49.25,756,49.25,756,630.4531,16,630.4531,16,26.9531" style="stroke:#000000;stroke-width:1.5;"/><line style="stroke:#000000;stroke-width:1.5;" x1="16" x2="187" y1="49.25" y2="49.25"/><text fill="#000000" font-family="sans-serif" font-size="14" font-weight="bold" lengthAdjust="spacing" textLength="158" x="20" y="41.9482">edu.tec.ic6821.blog</text><!--MD5=[a5f7393cdea04c07f0a0f6edc981a525]
cluster framework--><polygon fill="#FFFFFF" filter="url(#fgprh2s4ny9jl)" points="173,69.9531,265,69.9531,272,92.25,405,92.25,405,219.9531,173,219.9531,173,69.9531" style="stroke:#000000;stroke-width:1.5;"/><line style="stroke:#000000;stroke-width:1.5;" x1="173" x2="272" y1="92.25" y2="92.25"/><text fill="#000000" font-family="sans-serif" font-size="14" font-weight="bold" lengthAdjust="spacing" textLength="86" x="177" y="84.9482">framework</text><!--MD5=[929e54e3fdc179fdc61410e4aa9b3bff]
cluster users.model--><polygon fill="#FFFFFF" filter="url(#fgprh2s4ny9jl)" points="40,252.9531,144,252.9531,151,275.25,732,275.25,732,606.4531,40,606.4531,40,252.9531" style="stroke:#000000;stroke-width:1.5;"/><line style="stroke:#000000;stroke-width:1.5;" x1="40" x2="151" y1="275.25" y2="275.25"/><text fill="#000000" font-family="sans-serif" font-size="14" font-weight="bold" lengthAdjust="spacing" textLength="98" x="44" y="267.9482">users.model</text><!--MD5=[7c5cc8fc0f949c5d0623f77a943db645]
cluster hsqldb--><polygon fill="#FFFFFF" filter="url(#fgprh2s4ny9jl)" points="374,295.9531,433,295.9531,440,318.25,708,318.25,708,407.9531,374,407.9531,374,295.9531" style="stroke:#000000;stroke-width:1.5;"/><line style="stroke:#000000;stroke-width:1.5;" x1="374" x2="440" y1="318.25" y2="318.25"/><text fill="#000000" font-family="sans-serif" font-size="14" font-weight="bold" lengthAdjust="spacing" textLength="53" x="378" y="310.9482">hsqldb</text><!--MD5=[82fc0fe3105ea7e5a8153e9bad9bb401]
class RowMapper--><rect codeLine="5" fill="#FEFECE" filter="url(#fgprh2s4ny9jl)" height="48" id="RowMapper" style="stroke:#A80036;stroke-width:1.5;" width="113" x="514.5" y="772.4531"/><ellipse cx="529.5" cy="788.4531" fill="#B4A7E5" rx="11" ry="11" style="stroke:#A80036;stroke-width:1.0;"/><path d="M525.9219,784.2344 L525.9219,781.9531 L533.3125,781.9531 L533.3125,784.2344 L530.8438,784.2344 L530.8438,792.6875 L533.3125,792.6875 L533.3125,794.9531 L525.9219,794.9531 L525.9219,792.6875 L528.3906,792.6875 L528.3906,784.2344 L525.9219,784.2344 Z " fill="#000000"/><text fill="#000000" font-family="sans-serif" font-size="12" font-style="italic" lengthAdjust="spacing" textLength="70" x="543.5" y="792.6074">RowMapper</text><rect fill="#FFFFFF" height="15.9688" style="stroke:#000000;stroke-width:1.0;stroke-dasharray:2.0,2.0;" width="9" x="621.5" y="769.4531"/><text fill="#000000" font-family="sans-serif" font-size="12" font-style="italic" lengthAdjust="spacing" textLength="7" x="622.5" y="781.5918">T</text><line style="stroke:#A80036;stroke-width:1.5;" x1="515.5" x2="626.5" y1="804.4531" y2="804.4531"/><line style="stroke:#A80036;stroke-width:1.5;" x1="515.5" x2="626.5" y1="812.4531" y2="812.4531"/><!--MD5=[c1d55c24b3fa8e9af852d1b9d570ed35]
class NamedParameterJdbcDaoSupport--><rect codeLine="10" fill="#FEFECE" filter="url(#fgprh2s4ny9jl)" height="48" id="NamedParameterJdbcDaoSupport" style="stroke:#A80036;stroke-width:1.5;" width="236" x="663" y="772.4531"/><ellipse cx="678" cy="788.4531" fill="#ADD1B2" rx="11" ry="11" style="stroke:#A80036;stroke-width:1.0;"/><path d="M680.4688,794.3281 Q679.8906,794.6406 679.25,794.7969 Q678.6094,794.9531 677.9063,794.9531 Q675.4063,794.9531 674.0781,793.2813 Q672.7656,791.6094 672.7656,788.4531 Q672.7656,785.2969 674.0781,783.625 Q675.4063,781.9531 677.9063,781.9531 Q678.6094,781.9531 679.25,782.1094 Q679.9063,782.2656 680.4688,782.5781 L680.4688,785.375 Q679.8438,784.8125 679.25,784.5469 Q678.6563,784.2656 678.0313,784.2656 Q676.6875,784.2656 676,785.3281 Q675.3125,786.3906 675.3125,788.4531 Q675.3125,790.5313 676,791.5938 Q676.6875,792.6406 678.0313,792.6406 Q678.6563,792.6406 679.25,792.375 Q679.8438,792.1094 680.4688,791.5313 L680.4688,794.3281 Z " fill="#000000"/><text fill="#000000" font-family="sans-serif" font-size="12" lengthAdjust="spacing" textLength="204" x="692" y="792.6074">NamedParameterJdbcDaoSupport</text><line style="stroke:#A80036;stroke-width:1.5;" x1="664" x2="898" y1="804.4531" y2="804.4531"/><line style="stroke:#A80036;stroke-width:1.5;" x1="664" x2="898" y1="812.4531" y2="812.4531"/><!--MD5=[7d75efcc7d06b347edea0516f6aac1d8]
class BaseEntity--><rect codeLine="16" fill="#FEFECE" filter="url(#fgprh2s4ny9jl)" height="99.2188" id="BaseEntity" style="stroke:#A80036;stroke-width:1.5;" width="200" x="189" y="104.9531"/><ellipse cx="252.75" cy="120.9531" fill="#A9DCDF" rx="11" ry="11" style="stroke:#A80036;stroke-width:1.0;"/><path d="M252.8594,116.25 L251.7031,121.5781 L254.0313,121.5781 L252.8594,116.25 Z M251.375,113.7031 L254.3594,113.7031 L257.7188,126.7031 L255.2656,126.7031 L254.5,123.7031 L251.2188,123.7031 L250.4688,126.7031 L248.0313,126.7031 L251.375,113.7031 Z " fill="#000000"/><text fill="#000000" font-family="sans-serif" font-size="12" font-style="italic" lengthAdjust="spacing" textLength="64" x="273.25" y="125.1074">BaseEntity</text><line style="stroke:#A80036;stroke-width:1.5;" x1="190" x2="388" y1="136.9531" y2="136.9531"/><polygon fill="none" points="200,142.9531,204,146.9531,200,150.9531,196,146.9531" style="stroke:#B38D22;stroke-width:1.0;"/><text fill="#000000" font-family="sans-serif" font-size="11" lengthAdjust="spacing" textLength="45" x="209" y="151.1636">id: Long</text><polygon fill="none" points="200,155.7578,204,159.7578,200,163.7578,196,159.7578" style="stroke:#B38D22;stroke-width:1.0;"/><text fill="#000000" font-family="sans-serif" font-size="11" lengthAdjust="spacing" textLength="69" x="209" y="163.9683">extId: String</text><polygon fill="none" points="200,168.5625,204,172.5625,200,176.5625,196,172.5625" style="stroke:#B38D22;stroke-width:1.0;"/><text fill="#000000" font-family="sans-serif" font-size="11" lengthAdjust="spacing" textLength="150" x="209" y="176.7729">createdOn: LocalDateTime</text><polygon fill="none" points="200,181.3672,204,185.3672,200,189.3672,196,185.3672" style="stroke:#B38D22;stroke-width:1.0;"/><text fill="#000000" font-family="sans-serif" font-size="11" lengthAdjust="spacing" textLength="174" x="209" y="189.5776">lastUpdatedOn: LocalDateTime</text><line style="stroke:#A80036;stroke-width:1.5;" x1="190" x2="388" y1="196.1719" y2="196.1719"/><!--MD5=[3fd616f346a44cd59a91eb10b19e157c]
class User--><rect codeLine="25" fill="#FEFECE" filter="url(#fgprh2s4ny9jl)" height="112.0234" id="User" style="stroke:#A80036;stroke-width:1.5;" width="132" x="223" y="305.4531"/><ellipse cx="271.25" cy="321.4531" fill="#ADD1B2" rx="11" ry="11" style="stroke:#A80036;stroke-width:1.0;"/><path d="M273.7188,327.3281 Q273.1406,327.6406 272.5,327.7969 Q271.8594,327.9531 271.1563,327.9531 Q268.6563,327.9531 267.3281,326.2813 Q266.0156,324.6094 266.0156,321.4531 Q266.0156,318.2969 267.3281,316.625 Q268.6563,314.9531 271.1563,314.9531 Q271.8594,314.9531 272.5,315.1094 Q273.1563,315.2656 273.7188,315.5781 L273.7188,318.375 Q273.0938,317.8125 272.5,317.5469 Q271.9063,317.2656 271.2813,317.2656 Q269.9375,317.2656 269.25,318.3281 Q268.5625,319.3906 268.5625,321.4531 Q268.5625,323.5313 269.25,324.5938 Q269.9375,325.6406 271.2813,325.6406 Q271.9063,325.6406 272.5,325.375 Q273.0938,325.1094 273.7188,324.5313 L273.7188,327.3281 Z " fill="#000000"/><text fill="#000000" font-family="sans-serif" font-size="12" lengthAdjust="spacing" textLength="27" x="291.75" y="325.6074">User</text><line style="stroke:#A80036;stroke-width:1.5;" x1="224" x2="354" y1="337.4531" y2="337.4531"/><rect fill="none" height="6" style="stroke:#C82930;stroke-width:1.0;" width="6" x="231" y="345.4531"/><text fill="#000000" font-family="sans-serif" font-size="11" lengthAdjust="spacing" textLength="106" x="243" y="351.6636">integrationId: Long</text><rect fill="none" height="6" style="stroke:#C82930;stroke-width:1.0;" width="6" x="231" y="358.2578"/><text fill="#000000" font-family="sans-serif" font-size="11" lengthAdjust="spacing" textLength="98" x="243" y="364.4683">username: String</text><rect fill="none" height="6" style="stroke:#C82930;stroke-width:1.0;" width="6" x="231" y="371.0625"/><text fill="#000000" font-family="sans-serif" font-size="11" lengthAdjust="spacing" textLength="73" x="243" y="377.2729">name: String</text><rect fill="none" height="6" style="stroke:#C82930;stroke-width:1.0;" width="6" x="231" y="383.8672"/><text fill="#000000" font-family="sans-serif" font-size="11" lengthAdjust="spacing" textLength="72" x="243" y="390.0776">email: String</text><rect fill="none" height="6" style="stroke:#C82930;stroke-width:1.0;" width="6" x="231" y="396.6719"/><text fill="#000000" font-family="sans-serif" font-size="11" lengthAdjust="spacing" textLength="86" x="243" y="402.8823">zipCode: String</text><line style="stroke:#A80036;stroke-width:1.5;" x1="224" x2="354" y1="409.4766" y2="409.4766"/><!--MD5=[70d98a5b6eddfa62f6550e7c1d028c5c]
class UserDao--><rect codeLine="35" fill="#FEFECE" filter="url(#fgprh2s4ny9jl)" height="112.0234" id="UserDao" style="stroke:#A80036;stroke-width:1.5;" width="374" x="56" y="478.4531"/><ellipse cx="213.75" cy="494.4531" fill="#B4A7E5" rx="11" ry="11" style="stroke:#A80036;stroke-width:1.0;"/><path d="M210.1719,490.2344 L210.1719,487.9531 L217.5625,487.9531 L217.5625,490.2344 L215.0938,490.2344 L215.0938,498.6875 L217.5625,498.6875 L217.5625,500.9531 L210.1719,500.9531 L210.1719,498.6875 L212.6406,498.6875 L212.6406,490.2344 L210.1719,490.2344 Z " fill="#000000"/><text fill="#000000" font-family="sans-serif" font-size="12" font-style="italic" lengthAdjust="spacing" textLength="50" x="234.25" y="498.6074">UserDao</text><line style="stroke:#A80036;stroke-width:1.5;" x1="57" x2="429" y1="510.4531" y2="510.4531"/><line style="stroke:#A80036;stroke-width:1.5;" x1="57" x2="429" y1="518.4531" y2="518.4531"/><text fill="#000000" font-family="sans-serif" font-size="11" lengthAdjust="spacing" textLength="133" x="62" y="532.6636">create(User user): User</text><text fill="#000000" font-family="sans-serif" font-size="11" lengthAdjust="spacing" textLength="164" x="62" y="545.4683">create(List&lt;User&gt; users): int</text><text fill="#000000" font-family="sans-serif" font-size="11" lengthAdjust="spacing" textLength="194" x="62" y="558.2729">findById(Long id): Optional&lt;User&gt;</text><text fill="#000000" font-family="sans-serif" font-size="11" lengthAdjust="spacing" textLength="236" x="62" y="571.0776">findByExtId(String extId): Optional&lt;User&gt;</text><text fill="#000000" font-family="sans-serif" font-size="11" lengthAdjust="spacing" textLength="362" x="62" y="583.8823">findByIntegrationIds(List&lt;Long&gt; userIntegrationIds): List&lt;User&gt;</text><!--MD5=[a96a5e6e5afe7fab881d37e569906633]
class UserRowMapper--><rect codeLine="43" fill="#FEFECE" filter="url(#fgprh2s4ny9jl)" height="60.8047" id="UserRowMapper" style="stroke:#A80036;stroke-width:1.5;" width="251" x="464.5" y="503.9531"/><ellipse cx="537.25" cy="519.9531" fill="#ADD1B2" rx="11" ry="11" style="stroke:#A80036;stroke-width:1.0;"/><path d="M539.7188,525.8281 Q539.1406,526.1406 538.5,526.2969 Q537.8594,526.4531 537.1563,526.4531 Q534.6563,526.4531 533.3281,524.7813 Q532.0156,523.1094 532.0156,519.9531 Q532.0156,516.7969 533.3281,515.125 Q534.6563,513.4531 537.1563,513.4531 Q537.8594,513.4531 538.5,513.6094 Q539.1563,513.7656 539.7188,514.0781 L539.7188,516.875 Q539.0938,516.3125 538.5,516.0469 Q537.9063,515.7656 537.2813,515.7656 Q535.9375,515.7656 535.25,516.8281 Q534.5625,517.8906 534.5625,519.9531 Q534.5625,522.0313 535.25,523.0938 Q535.9375,524.1406 537.2813,524.1406 Q537.9063,524.1406 538.5,523.875 Q539.0938,523.6094 539.7188,523.0313 L539.7188,525.8281 Z " fill="#000000"/><text fill="#000000" font-family="sans-serif" font-size="12" lengthAdjust="spacing" textLength="97" x="557.75" y="524.1074">UserRowMapper</text><line style="stroke:#A80036;stroke-width:1.5;" x1="465.5" x2="714.5" y1="535.9531" y2="535.9531"/><line style="stroke:#A80036;stroke-width:1.5;" x1="465.5" x2="714.5" y1="543.9531" y2="543.9531"/><ellipse cx="475.5" cy="554.9531" fill="#84BE84" rx="3" ry="3" style="stroke:#038048;stroke-width:1.0;"/><text fill="#000000" font-family="sans-serif" font-size="11" lengthAdjust="spacing" textLength="225" x="484.5" y="558.1636">mapRow(:ResultSet, rowNum :int): User</text><!--MD5=[2d8dd690cac7829baefaf3cc19be67b3]
class HSQLDBUserDao--><rect codeLine="50" fill="#FEFECE" filter="url(#fgprh2s4ny9jl)" height="60.8047" id="HSQLDBUserDao" style="stroke:#A80036;stroke-width:1.5;" width="301" x="390.5" y="330.9531"/><ellipse cx="486.75" cy="346.9531" fill="#ADD1B2" rx="11" ry="11" style="stroke:#A80036;stroke-width:1.0;"/><path d="M489.2188,352.8281 Q488.6406,353.1406 488,353.2969 Q487.3594,353.4531 486.6563,353.4531 Q484.1563,353.4531 482.8281,351.7813 Q481.5156,350.1094 481.5156,346.9531 Q481.5156,343.7969 482.8281,342.125 Q484.1563,340.4531 486.6563,340.4531 Q487.3594,340.4531 488,340.6094 Q488.6563,340.7656 489.2188,341.0781 L489.2188,343.875 Q488.5938,343.3125 488,343.0469 Q487.4063,342.7656 486.7813,342.7656 Q485.4375,342.7656 484.75,343.8281 Q484.0625,344.8906 484.0625,346.9531 Q484.0625,349.0313 484.75,350.0938 Q485.4375,351.1406 486.7813,351.1406 Q487.4063,351.1406 488,350.875 Q488.5938,350.6094 489.2188,350.0313 L489.2188,352.8281 Z " fill="#000000"/><text fill="#000000" font-family="sans-serif" font-size="12" lengthAdjust="spacing" textLength="100" x="507.25" y="351.1074">HSQLDBUserDao</text><line style="stroke:#A80036;stroke-width:1.5;" x1="391.5" x2="690.5" y1="362.9531" y2="362.9531"/><line style="stroke:#A80036;stroke-width:1.5;" x1="391.5" x2="690.5" y1="370.9531" y2="370.9531"/><ellipse cx="401.5" cy="381.9531" fill="#84BE84" rx="3" ry="3" style="stroke:#038048;stroke-width:1.0;"/><text fill="#000000" font-family="sans-serif" font-size="11" lengthAdjust="spacing" textLength="275" x="410.5" y="385.1636">HSQLDBUserDao(:DataSource, :UserRowMapper)</text><!--MD5=[399725f92b64944fafc4dbd2678d6279]
reverse link BaseEntity to User--><path codeLine="33" d="M289,224.3231 C289,250.6931 289,280.4231 289,305.3431 " fill="none" id="BaseEntity-backto-User" style="stroke:#A80036;stroke-width:1.0;"/><polygon fill="none" points="282,224.0331,289,204.0331,296,224.0331,282,224.0331" style="stroke:#A80036;stroke-width:1.0;"/><!--MD5=[c35c4b925e2d68fbf9cba33e9c9e3292]
link UserRowMapper to RowMapper--><path codeLine="47" d="M587.84,565.0231 C584.49,610.8931 578.02,699.4231 574.15,752.3931 " fill="none" id="UserRowMapper-to-RowMapper" style="stroke:#A80036;stroke-width:1.0;stroke-dasharray:7.0,7.0;"/><polygon fill="none" points="581.13,752.9331,572.69,772.3731,567.16,751.9131,581.13,752.9331" style="stroke:#A80036;stroke-width:1.0;"/><text fill="#000000" font-family="sans-serif" font-size="13" lengthAdjust="spacing" textLength="44" x="582" y="659.52">«bind»</text><text fill="#000000" font-family="sans-serif" font-size="13" lengthAdjust="spacing" textLength="42" x="583" y="674.6528">User:T</text><!--MD5=[0536aa74be8e80f03880f3cd13a74f1c]
link HSQLDBUserDao to NamedParameterJdbcDaoSupport--><path codeLine="54" d="M656.96,392.1431 C685.49,404.7531 713.21,422.5331 732,447.4531 C800.42,538.2131 795.21,681.1531 787.3,752.2731 " fill="none" id="HSQLDBUserDao-to-NamedParameterJdbcDaoSupport" style="stroke:#A80036;stroke-width:1.0;"/><polygon fill="none" points="794.22,753.3331,784.78,772.3031,780.33,751.5831,794.22,753.3331" style="stroke:#A80036;stroke-width:1.0;"/><!--MD5=[2ccef0f34ce8eebebb2593a68899c327]
link HSQLDBUserDao to UserDao--><path codeLine="55" d="M489.43,392.0431 C452.88,413.0231 402.4,441.9831 356.64,468.2431 " fill="none" id="HSQLDBUserDao-to-UserDao" style="stroke:#A80036;stroke-width:1.0;stroke-dasharray:7.0,7.0;"/><polygon fill="none" points="359.87,474.4631,339.04,478.3431,352.9,462.3231,359.87,474.4631" style="stroke:#A80036;stroke-width:1.0;"/><!--MD5=[23a6d3d4060938332b167da139a1a23a]
link HSQLDBUserDao to UserRowMapper--><path codeLine="56" d="M549.54,392.2431 C558.05,421.9431 571.11,467.5331 580.08,498.8231 " fill="none" id="HSQLDBUserDao-to-UserRowMapper" style="stroke:#A80036;stroke-width:1.0;"/><polygon fill="#A80036" points="581.48,503.7231,582.8613,493.9716,580.1102,498.9144,575.1673,496.1633,581.48,503.7231" style="stroke:#A80036;stroke-width:1.0;"/><!--MD5=[c9f698ec2d7ad065cc5fe91a8ef44ac1]
reverse link User to HSQLDBUserDao--><path codeLine="57" d="M360.61,361.4531 C370.49,361.4531 380.36,361.4531 390.24,361.4531 " fill="none" id="User-backto-HSQLDBUserDao" style="stroke:#A80036;stroke-width:1.0;stroke-dasharray:7.0,7.0;"/><polygon fill="#A80036" points="355.45,361.4531,364.45,365.4531,360.45,361.4531,364.45,357.4531,355.45,361.4531" style="stroke:#A80036;stroke-width:1.0;"/><!--MD5=[bf523438f4e622aebdfe61a5822ac452]
@startuml

title [Code] User Entities

package org.springframework.jdbc.core {
    interface RowMapper<T> {

    }

    package namedparam {
        class NamedParameterJdbcDaoSupport {}
    }
}

package edu.tec.ic6821.blog {
    package framework {
        abstract class BaseEntity {
            # id: Long
            # extId: String
            # createdOn: LocalDateTime
            # lastUpdatedOn: LocalDateTime
        }
    }

    package users.model {
        class User {
            - integrationId: Long
            - username: String
            - name: String
            - email: String
            - zipCode: String
        }

        User -up-|> BaseEntity

        interface UserDao {
            create(User user): User
            create(List<User> users): int
            findById(Long id): Optional<User>
            findByExtId(String extId): Optional<User>
            findByIntegrationIds(List<Long> userIntegrationIds): List<User>
        }

        class UserRowMapper {
            + mapRow(:ResultSet, rowNum :int): User
        }

        UserRowMapper ..|> RowMapper :<<bind>>\nUser:T

        package hsqldb {
            class HSQLDBUserDao {
                + HSQLDBUserDao(:DataSource, :UserRowMapper)
            }

            HSQLDBUserDao - -|> NamedParameterJdbcDaoSupport
            HSQLDBUserDao ..|> UserDao
            HSQLDBUserDao - -> UserRowMapper
            HSQLDBUserDao .left.> User
        }
    }
}

@enduml

PlantUML version 1.2021.11(Sat Oct 02 07:26:11 CST 2021)
(GPL source distribution)
Java Runtime: OpenJDK Runtime Environment
JVM: OpenJDK 64-Bit Server VM
Default Encoding: UTF-8
Language: en
Country: US
--></g></svg>