<?xml version="1.0" encoding="UTF-8" standalone="no"?><svg xmlns="http://www.w3.org/2000/svg" xmlns:xlink="http://www.w3.org/1999/xlink" contentScriptType="application/ecmascript" contentStyleType="text/css" height="880px" preserveAspectRatio="none" style="width:799px;height:880px;background:#FFFFFF;" version="1.1" viewBox="0 0 799 880" width="799px" zoomAndPan="magnify"><defs><filter height="300%" id="f12wt4qknax2wd" width="300%" x="-1" y="-1"><feGaussianBlur result="blurOut" stdDeviation="2.0"/><feColorMatrix in="blurOut" result="blurOut2" type="matrix" values="0 0 0 0 0 0 0 0 0 0 0 0 0 0 0 0 0 0 .4 0"/><feOffset dx="4.0" dy="4.0" in="blurOut2" result="blurOut3"/><feBlend in="SourceGraphic" in2="blurOut3" mode="normal"/></filter></defs><g><text fill="#000000" font-family="sans-serif" font-size="18" lengthAdjust="spacing" textLength="176" x="305" y="16.708">[Code] Post Entities</text><!--MD5=[a85ef66161f820356d55879b1ece6697]
cluster org.springframework.jdbc.core--><polygon fill="#FFFFFF" filter="url(#f12wt4qknax2wd)" points="341,707.4531,593,707.4531,600,729.75,782,729.75,782,873.4531,341,873.4531,341,707.4531" style="stroke:#000000;stroke-width:1.5;"/><line style="stroke:#000000;stroke-width:1.5;" x1="341" x2="600" y1="729.75" y2="729.75"/><text fill="#000000" font-family="sans-serif" font-size="14" font-weight="bold" lengthAdjust="spacing" textLength="246" x="345" y="722.4482">org.springframework.jdbc.core</text><!--MD5=[d25c967fbb1e16689327a07e778e268c]
cluster namedparam--><polygon fill="#FFFFFF" filter="url(#f12wt4qknax2wd)" points="490,750.4531,600,750.4531,607,772.75,758,772.75,758,849.4531,490,849.4531,490,750.4531" style="stroke:#000000;stroke-width:1.5;"/><line style="stroke:#000000;stroke-width:1.5;" x1="490" x2="607" y1="772.75" y2="772.75"/><text fill="#000000" font-family="sans-serif" font-size="14" font-weight="bold" lengthAdjust="spacing" textLength="104" x="494" y="765.4482">namedparam</text><!--MD5=[58506b7fc782ff127a1a962d1768a9cc]
cluster edu.tec.ic6821.blog--><polygon fill="#FFFFFF" filter="url(#f12wt4qknax2wd)" points="16,26.9531,180,26.9531,187,49.25,610,49.25,610,643.4531,16,643.4531,16,26.9531" style="stroke:#000000;stroke-width:1.5;"/><line style="stroke:#000000;stroke-width:1.5;" x1="16" x2="187" y1="49.25" y2="49.25"/><text fill="#000000" font-family="sans-serif" font-size="14" font-weight="bold" lengthAdjust="spacing" textLength="158" x="20" y="41.9482">edu.tec.ic6821.blog</text><!--MD5=[a5f7393cdea04c07f0a0f6edc981a525]
cluster framework--><polygon fill="#FFFFFF" filter="url(#f12wt4qknax2wd)" points="40,69.9531,132,69.9531,139,92.25,272,92.25,272,219.9531,40,219.9531,40,69.9531" style="stroke:#000000;stroke-width:1.5;"/><line style="stroke:#000000;stroke-width:1.5;" x1="40" x2="139" y1="92.25" y2="92.25"/><text fill="#000000" font-family="sans-serif" font-size="14" font-weight="bold" lengthAdjust="spacing" textLength="86" x="44" y="84.9482">framework</text><!--MD5=[9e56d6a4770303a35a4af256b9d0dd18]
cluster posts.model--><polygon fill="#FFFFFF" filter="url(#f12wt4qknax2wd)" points="40,252.9531,144,252.9531,151,275.25,586,275.25,586,619.4531,40,619.4531,40,252.9531" style="stroke:#000000;stroke-width:1.5;"/><line style="stroke:#000000;stroke-width:1.5;" x1="40" x2="151" y1="275.25" y2="275.25"/><text fill="#000000" font-family="sans-serif" font-size="14" font-weight="bold" lengthAdjust="spacing" textLength="98" x="44" y="267.9482">posts.model</text><!--MD5=[7c5cc8fc0f949c5d0623f77a943db645]
cluster hsqldb--><polygon fill="#FFFFFF" filter="url(#f12wt4qknax2wd)" points="232,295.9531,291,295.9531,298,318.25,562,318.25,562,407.9531,232,407.9531,232,295.9531" style="stroke:#000000;stroke-width:1.5;"/><line style="stroke:#000000;stroke-width:1.5;" x1="232" x2="298" y1="318.25" y2="318.25"/><text fill="#000000" font-family="sans-serif" font-size="14" font-weight="bold" lengthAdjust="spacing" textLength="53" x="236" y="310.9482">hsqldb</text><!--MD5=[82fc0fe3105ea7e5a8153e9bad9bb401]
class RowMapper--><rect codeLine="5" fill="#FEFECE" filter="url(#f12wt4qknax2wd)" height="48" id="RowMapper" style="stroke:#A80036;stroke-width:1.5;" width="113" x="357.5" y="785.4531"/><ellipse cx="372.5" cy="801.4531" fill="#B4A7E5" rx="11" ry="11" style="stroke:#A80036;stroke-width:1.0;"/><path d="M368.9219,797.2344 L368.9219,794.9531 L376.3125,794.9531 L376.3125,797.2344 L373.8438,797.2344 L373.8438,805.6875 L376.3125,805.6875 L376.3125,807.9531 L368.9219,807.9531 L368.9219,805.6875 L371.3906,805.6875 L371.3906,797.2344 L368.9219,797.2344 Z " fill="#000000"/><text fill="#000000" font-family="sans-serif" font-size="12" font-style="italic" lengthAdjust="spacing" textLength="70" x="386.5" y="805.6074">RowMapper</text><rect fill="#FFFFFF" height="15.9688" style="stroke:#000000;stroke-width:1.0;stroke-dasharray:2.0,2.0;" width="9" x="464.5" y="782.4531"/><text fill="#000000" font-family="sans-serif" font-size="12" font-style="italic" lengthAdjust="spacing" textLength="7" x="465.5" y="794.5918">T</text><line style="stroke:#A80036;stroke-width:1.5;" x1="358.5" x2="469.5" y1="817.4531" y2="817.4531"/><line style="stroke:#A80036;stroke-width:1.5;" x1="358.5" x2="469.5" y1="825.4531" y2="825.4531"/><!--MD5=[c1d55c24b3fa8e9af852d1b9d570ed35]
class NamedParameterJdbcDaoSupport--><rect codeLine="10" fill="#FEFECE" filter="url(#f12wt4qknax2wd)" height="48" id="NamedParameterJdbcDaoSupport" style="stroke:#A80036;stroke-width:1.5;" width="236" x="506" y="785.4531"/><ellipse cx="521" cy="801.4531" fill="#ADD1B2" rx="11" ry="11" style="stroke:#A80036;stroke-width:1.0;"/><path d="M523.4688,807.3281 Q522.8906,807.6406 522.25,807.7969 Q521.6094,807.9531 520.9063,807.9531 Q518.4063,807.9531 517.0781,806.2813 Q515.7656,804.6094 515.7656,801.4531 Q515.7656,798.2969 517.0781,796.625 Q518.4063,794.9531 520.9063,794.9531 Q521.6094,794.9531 522.25,795.1094 Q522.9063,795.2656 523.4688,795.5781 L523.4688,798.375 Q522.8438,797.8125 522.25,797.5469 Q521.6563,797.2656 521.0313,797.2656 Q519.6875,797.2656 519,798.3281 Q518.3125,799.3906 518.3125,801.4531 Q518.3125,803.5313 519,804.5938 Q519.6875,805.6406 521.0313,805.6406 Q521.6563,805.6406 522.25,805.375 Q522.8438,805.1094 523.4688,804.5313 L523.4688,807.3281 Z " fill="#000000"/><text fill="#000000" font-family="sans-serif" font-size="12" lengthAdjust="spacing" textLength="204" x="535" y="805.6074">NamedParameterJdbcDaoSupport</text><line style="stroke:#A80036;stroke-width:1.5;" x1="507" x2="741" y1="817.4531" y2="817.4531"/><line style="stroke:#A80036;stroke-width:1.5;" x1="507" x2="741" y1="825.4531" y2="825.4531"/><!--MD5=[7d75efcc7d06b347edea0516f6aac1d8]
class BaseEntity--><rect codeLine="16" fill="#FEFECE" filter="url(#f12wt4qknax2wd)" height="99.2188" id="BaseEntity" style="stroke:#A80036;stroke-width:1.5;" width="200" x="56" y="104.9531"/><ellipse cx="119.75" cy="120.9531" fill="#A9DCDF" rx="11" ry="11" style="stroke:#A80036;stroke-width:1.0;"/><path d="M119.8594,116.25 L118.7031,121.5781 L121.0313,121.5781 L119.8594,116.25 Z M118.375,113.7031 L121.3594,113.7031 L124.7188,126.7031 L122.2656,126.7031 L121.5,123.7031 L118.2188,123.7031 L117.4688,126.7031 L115.0313,126.7031 L118.375,113.7031 Z " fill="#000000"/><text fill="#000000" font-family="sans-serif" font-size="12" font-style="italic" lengthAdjust="spacing" textLength="64" x="140.25" y="125.1074">BaseEntity</text><line style="stroke:#A80036;stroke-width:1.5;" x1="57" x2="255" y1="136.9531" y2="136.9531"/><polygon fill="none" points="67,142.9531,71,146.9531,67,150.9531,63,146.9531" style="stroke:#B38D22;stroke-width:1.0;"/><text fill="#000000" font-family="sans-serif" font-size="11" lengthAdjust="spacing" textLength="45" x="76" y="151.1636">id: Long</text><polygon fill="none" points="67,155.7578,71,159.7578,67,163.7578,63,159.7578" style="stroke:#B38D22;stroke-width:1.0;"/><text fill="#000000" font-family="sans-serif" font-size="11" lengthAdjust="spacing" textLength="69" x="76" y="163.9683">extId: String</text><polygon fill="none" points="67,168.5625,71,172.5625,67,176.5625,63,172.5625" style="stroke:#B38D22;stroke-width:1.0;"/><text fill="#000000" font-family="sans-serif" font-size="11" lengthAdjust="spacing" textLength="150" x="76" y="176.7729">createdOn: LocalDateTime</text><polygon fill="none" points="67,181.3672,71,185.3672,67,189.3672,63,185.3672" style="stroke:#B38D22;stroke-width:1.0;"/><text fill="#000000" font-family="sans-serif" font-size="11" lengthAdjust="spacing" textLength="174" x="76" y="189.5776">lastUpdatedOn: LocalDateTime</text><line style="stroke:#A80036;stroke-width:1.5;" x1="57" x2="255" y1="196.1719" y2="196.1719"/><!--MD5=[9bb0bdd047fba1a3c8d48282c35b4537]
class Post--><rect codeLine="25" fill="#FEFECE" filter="url(#f12wt4qknax2wd)" height="112.0234" id="Post" style="stroke:#A80036;stroke-width:1.5;" width="157" x="56.5" y="305.4531"/><ellipse cx="118.25" cy="321.4531" fill="#ADD1B2" rx="11" ry="11" style="stroke:#A80036;stroke-width:1.0;"/><path d="M120.7188,327.3281 Q120.1406,327.6406 119.5,327.7969 Q118.8594,327.9531 118.1563,327.9531 Q115.6563,327.9531 114.3281,326.2813 Q113.0156,324.6094 113.0156,321.4531 Q113.0156,318.2969 114.3281,316.625 Q115.6563,314.9531 118.1563,314.9531 Q118.8594,314.9531 119.5,315.1094 Q120.1563,315.2656 120.7188,315.5781 L120.7188,318.375 Q120.0938,317.8125 119.5,317.5469 Q118.9063,317.2656 118.2813,317.2656 Q116.9375,317.2656 116.25,318.3281 Q115.5625,319.3906 115.5625,321.4531 Q115.5625,323.5313 116.25,324.5938 Q116.9375,325.6406 118.2813,325.6406 Q118.9063,325.6406 119.5,325.375 Q120.0938,325.1094 120.7188,324.5313 L120.7188,327.3281 Z " fill="#000000"/><text fill="#000000" font-family="sans-serif" font-size="12" lengthAdjust="spacing" textLength="25" x="138.75" y="325.6074">Post</text><line style="stroke:#A80036;stroke-width:1.5;" x1="57.5" x2="212.5" y1="337.4531" y2="337.4531"/><rect fill="none" height="6" style="stroke:#C82930;stroke-width:1.0;" width="6" x="64.5" y="345.4531"/><text fill="#000000" font-family="sans-serif" font-size="11" lengthAdjust="spacing" textLength="106" x="76.5" y="351.6636">integrationId: Long</text><rect fill="none" height="6" style="stroke:#C82930;stroke-width:1.0;" width="6" x="64.5" y="358.2578"/><text fill="#000000" font-family="sans-serif" font-size="11" lengthAdjust="spacing" textLength="131" x="76.5" y="364.4683">userIntegrationId: Long</text><rect fill="none" height="6" style="stroke:#C82930;stroke-width:1.0;" width="6" x="64.5" y="371.0625"/><text fill="#000000" font-family="sans-serif" font-size="11" lengthAdjust="spacing" textLength="70" x="76.5" y="377.2729">userId: Long</text><rect fill="none" height="6" style="stroke:#C82930;stroke-width:1.0;" width="6" x="64.5" y="383.8672"/><text fill="#000000" font-family="sans-serif" font-size="11" lengthAdjust="spacing" textLength="62" x="76.5" y="390.0776">title: String</text><rect fill="none" height="6" style="stroke:#C82930;stroke-width:1.0;" width="6" x="64.5" y="396.6719"/><text fill="#000000" font-family="sans-serif" font-size="11" lengthAdjust="spacing" textLength="69" x="76.5" y="402.8823">body: String</text><line style="stroke:#A80036;stroke-width:1.5;" x1="57.5" x2="212.5" y1="409.4766" y2="409.4766"/><!--MD5=[09bd85a82e4317e380eb2b66f557d9c5]
class PostDao--><rect codeLine="35" fill="#FEFECE" filter="url(#f12wt4qknax2wd)" height="124.8281" id="PostDao" style="stroke:#A80036;stroke-width:1.5;" width="218" x="56" y="478.4531"/><ellipse cx="136.75" cy="494.4531" fill="#B4A7E5" rx="11" ry="11" style="stroke:#A80036;stroke-width:1.0;"/><path d="M133.1719,490.2344 L133.1719,487.9531 L140.5625,487.9531 L140.5625,490.2344 L138.0938,490.2344 L138.0938,498.6875 L140.5625,498.6875 L140.5625,500.9531 L133.1719,500.9531 L133.1719,498.6875 L135.6406,498.6875 L135.6406,490.2344 L133.1719,490.2344 Z " fill="#000000"/><text fill="#000000" font-family="sans-serif" font-size="12" font-style="italic" lengthAdjust="spacing" textLength="48" x="157.25" y="498.6074">PostDao</text><line style="stroke:#A80036;stroke-width:1.5;" x1="57" x2="273" y1="510.4531" y2="510.4531"/><line style="stroke:#A80036;stroke-width:1.5;" x1="57" x2="273" y1="518.4531" y2="518.4531"/><text fill="#000000" font-family="sans-serif" font-size="11" lengthAdjust="spacing" textLength="104" x="62" y="532.6636">create(:Post): Post</text><text fill="#000000" font-family="sans-serif" font-size="11" lengthAdjust="spacing" textLength="131" x="62" y="545.4683">create(:List&lt;Post&gt;): int</text><text fill="#000000" font-family="sans-serif" font-size="11" lengthAdjust="spacing" textLength="182" x="62" y="558.2729">findById(:Long): Optional&lt;Post&gt;</text><text fill="#000000" font-family="sans-serif" font-size="11" lengthAdjust="spacing" textLength="206" x="62" y="571.0776">findByExtId(:String): Optional&lt;Post&gt;</text><text fill="#000000" font-family="sans-serif" font-size="11" lengthAdjust="spacing" textLength="109" x="62" y="583.8823">getAll(): List&lt;Post&gt;</text><text fill="#000000" font-family="sans-serif" font-size="11" lengthAdjust="spacing" textLength="180" x="62" y="596.687">findByUserId(:Long): List&lt;Post&gt;</text><!--MD5=[145f489654badff1cd7ad9f938cd9b20]
class PostRowMapper--><rect codeLine="44" fill="#FEFECE" filter="url(#f12wt4qknax2wd)" height="60.8047" id="PostRowMapper" style="stroke:#A80036;stroke-width:1.5;" width="249" x="309.5" y="510.4531"/><ellipse cx="382.25" cy="526.4531" fill="#ADD1B2" rx="11" ry="11" style="stroke:#A80036;stroke-width:1.0;"/><path d="M384.7188,532.3281 Q384.1406,532.6406 383.5,532.7969 Q382.8594,532.9531 382.1563,532.9531 Q379.6563,532.9531 378.3281,531.2813 Q377.0156,529.6094 377.0156,526.4531 Q377.0156,523.2969 378.3281,521.625 Q379.6563,519.9531 382.1563,519.9531 Q382.8594,519.9531 383.5,520.1094 Q384.1563,520.2656 384.7188,520.5781 L384.7188,523.375 Q384.0938,522.8125 383.5,522.5469 Q382.9063,522.2656 382.2813,522.2656 Q380.9375,522.2656 380.25,523.3281 Q379.5625,524.3906 379.5625,526.4531 Q379.5625,528.5313 380.25,529.5938 Q380.9375,530.6406 382.2813,530.6406 Q382.9063,530.6406 383.5,530.375 Q384.0938,530.1094 384.7188,529.5313 L384.7188,532.3281 Z " fill="#000000"/><text fill="#000000" font-family="sans-serif" font-size="12" lengthAdjust="spacing" textLength="95" x="402.75" y="530.6074">PostRowMapper</text><line style="stroke:#A80036;stroke-width:1.5;" x1="310.5" x2="557.5" y1="542.4531" y2="542.4531"/><line style="stroke:#A80036;stroke-width:1.5;" x1="310.5" x2="557.5" y1="550.4531" y2="550.4531"/><ellipse cx="320.5" cy="561.4531" fill="#84BE84" rx="3" ry="3" style="stroke:#038048;stroke-width:1.0;"/><text fill="#000000" font-family="sans-serif" font-size="11" lengthAdjust="spacing" textLength="223" x="329.5" y="564.6636">mapRow(:ResultSet, rowNum :int): Post</text><!--MD5=[6cc12fe5b2aa98b73764101b8101bcd3]
class HSQLDBPostDao--><rect codeLine="51" fill="#FEFECE" filter="url(#f12wt4qknax2wd)" height="60.8047" id="HSQLDBPostDao" style="stroke:#A80036;stroke-width:1.5;" width="297" x="248.5" y="330.9531"/><ellipse cx="343.75" cy="346.9531" fill="#ADD1B2" rx="11" ry="11" style="stroke:#A80036;stroke-width:1.0;"/><path d="M346.2188,352.8281 Q345.6406,353.1406 345,353.2969 Q344.3594,353.4531 343.6563,353.4531 Q341.1563,353.4531 339.8281,351.7813 Q338.5156,350.1094 338.5156,346.9531 Q338.5156,343.7969 339.8281,342.125 Q341.1563,340.4531 343.6563,340.4531 Q344.3594,340.4531 345,340.6094 Q345.6563,340.7656 346.2188,341.0781 L346.2188,343.875 Q345.5938,343.3125 345,343.0469 Q344.4063,342.7656 343.7813,342.7656 Q342.4375,342.7656 341.75,343.8281 Q341.0625,344.8906 341.0625,346.9531 Q341.0625,349.0313 341.75,350.0938 Q342.4375,351.1406 343.7813,351.1406 Q344.4063,351.1406 345,350.875 Q345.5938,350.6094 346.2188,350.0313 L346.2188,352.8281 Z " fill="#000000"/><text fill="#000000" font-family="sans-serif" font-size="12" lengthAdjust="spacing" textLength="98" x="364.25" y="351.1074">HSQLDBPostDao</text><line style="stroke:#A80036;stroke-width:1.5;" x1="249.5" x2="544.5" y1="362.9531" y2="362.9531"/><line style="stroke:#A80036;stroke-width:1.5;" x1="249.5" x2="544.5" y1="370.9531" y2="370.9531"/><ellipse cx="259.5" cy="381.9531" fill="#84BE84" rx="3" ry="3" style="stroke:#038048;stroke-width:1.0;"/><text fill="#000000" font-family="sans-serif" font-size="11" lengthAdjust="spacing" textLength="271" x="268.5" y="385.1636">HSQLDBPostDao(:DataSource, :PostRowMapper)</text><!--MD5=[d536178047529d8ac30a538820706f33]
reverse link BaseEntity to Post--><path codeLine="33" d="M148.95,224.3231 C146.24,250.6931 143.2,280.4231 140.65,305.3431 " fill="none" id="BaseEntity-backto-Post" style="stroke:#A80036;stroke-width:1.0;"/><polygon fill="none" points="142.02,223.2131,151.02,204.0331,155.95,224.6431,142.02,223.2131" style="stroke:#A80036;stroke-width:1.0;"/><!--MD5=[f05dc2e467751ab0a0adc15cd27de638]
link PostRowMapper to RowMapper--><path codeLine="48" d="M431.78,571.4931 C428.25,618.5431 421.33,710.7331 417.24,765.2131 " fill="none" id="PostRowMapper-to-RowMapper" style="stroke:#A80036;stroke-width:1.0;stroke-dasharray:7.0,7.0;"/><polygon fill="none" points="424.21,765.9531,415.73,785.3731,410.25,764.9031,424.21,765.9531" style="stroke:#A80036;stroke-width:1.0;"/><text fill="#000000" font-family="sans-serif" font-size="13" lengthAdjust="spacing" textLength="44" x="425" y="672.52">«bind»</text><text fill="#000000" font-family="sans-serif" font-size="13" lengthAdjust="spacing" textLength="40" x="427" y="687.6528">Post:T</text><!--MD5=[fc6f708cffaecdcc7a347edebef110c2]
link HSQLDBPostDao to NamedParameterJdbcDaoSupport--><path codeLine="55" d="M512.34,391.9631 C540.58,404.5731 567.86,422.3931 586,447.4531 C655.15,542.9931 643.51,691.7631 632.24,764.8831 " fill="none" id="HSQLDBPostDao-to-NamedParameterJdbcDaoSupport" style="stroke:#A80036;stroke-width:1.0;"/><polygon fill="none" points="639.08,766.4531,628.85,785.0031,625.27,764.1231,639.08,766.4531" style="stroke:#A80036;stroke-width:1.0;"/><!--MD5=[59a6fd7a2b8df9f250027b858208024f]
link HSQLDBPostDao to PostDao--><path codeLine="56" d="M358.43,391.9631 C331.96,412.2131 295.58,440.0431 261.51,466.1131 " fill="none" id="HSQLDBPostDao-to-PostDao" style="stroke:#A80036;stroke-width:1.0;stroke-dasharray:7.0,7.0;"/><polygon fill="none" points="265.69,471.7331,245.55,478.3231,257.18,460.6131,265.69,471.7331" style="stroke:#A80036;stroke-width:1.0;"/><!--MD5=[7ef843b2b64a28874c6cd4d3a3528d78]
link HSQLDBPostDao to PostRowMapper--><path codeLine="57" d="M403.19,392.1631 C409.7,423.3531 419.91,472.3631 426.78,505.3031 " fill="none" id="HSQLDBPostDao-to-PostRowMapper" style="stroke:#A80036;stroke-width:1.0;"/><polygon fill="#A80036" points="427.85,510.4431,429.9427,500.8192,426.8365,505.5469,422.1087,502.4408,427.85,510.4431" style="stroke:#A80036;stroke-width:1.0;"/><!--MD5=[12ee6d93b1027f484a0d9d871740e8ed]
reverse link Post to HSQLDBPostDao--><path codeLine="58" d="M218.71,361.4531 C228.57,361.4531 238.44,361.4531 248.3,361.4531 " fill="none" id="Post-backto-HSQLDBPostDao" style="stroke:#A80036;stroke-width:1.0;stroke-dasharray:7.0,7.0;"/><polygon fill="#A80036" points="213.55,361.4531,222.55,365.4531,218.55,361.4531,222.55,357.4531,213.55,361.4531" style="stroke:#A80036;stroke-width:1.0;"/><!--MD5=[d27a99df0551ea79e1288d3fddb0b6d3]
@startuml

title [Code] Post Entities

package org.springframework.jdbc.core {
    interface RowMapper<T> {

    }

    package namedparam {
        class NamedParameterJdbcDaoSupport {}
    }
}

package edu.tec.ic6821.blog {
    package framework {
        abstract class BaseEntity {
            # id: Long
            # extId: String
            # createdOn: LocalDateTime
            # lastUpdatedOn: LocalDateTime
        }
    }

    package posts.model {
        class Post {
            - integrationId: Long
            - userIntegrationId: Long
            - userId: Long
            - title: String
            - body: String
        }

        Post -up-|> BaseEntity

        interface PostDao {
            create(:Post): Post
            create(:List<Post>): int
            findById(:Long): Optional<Post>
            findByExtId(:String): Optional<Post>
            getAll(): List<Post>
            findByUserId(:Long): List<Post>
        }

        class PostRowMapper {
            + mapRow(:ResultSet, rowNum :int): Post
        }

        PostRowMapper ..|> RowMapper :<<bind>>\nPost:T

        package hsqldb {
            class HSQLDBPostDao {
                + HSQLDBPostDao(:DataSource, :PostRowMapper)
            }

            HSQLDBPostDao - -|> NamedParameterJdbcDaoSupport
            HSQLDBPostDao ..|> PostDao
            HSQLDBPostDao - -> PostRowMapper
            HSQLDBPostDao .left.> Post
        }
    }
}

@enduml

PlantUML version 1.2021.11(Sat Oct 02 07:26:11 CST 2021)
(GPL source distribution)
Java Runtime: OpenJDK Runtime Environment
JVM: OpenJDK 64-Bit Server VM
Default Encoding: UTF-8
Language: en
Country: US
--></g></svg>