<?xml version="1.0" encoding="UTF-8" standalone="no"?><svg xmlns="http://www.w3.org/2000/svg" xmlns:xlink="http://www.w3.org/1999/xlink" contentScriptType="application/ecmascript" contentStyleType="text/css" height="558px" preserveAspectRatio="none" style="width:575px;height:558px;background:#FFFFFF;" version="1.1" viewBox="0 0 575 558" width="575px" zoomAndPan="magnify"><defs><filter height="300%" id="f1b0uqkf8bd6xc" width="300%" x="-1" y="-1"><feGaussianBlur result="blurOut" stdDeviation="2.0"/><feColorMatrix in="blurOut" result="blurOut2" type="matrix" values="0 0 0 0 0 0 0 0 0 0 0 0 0 0 0 0 0 0 .4 0"/><feOffset dx="4.0" dy="4.0" in="blurOut2" result="blurOut3"/><feBlend in="SourceGraphic" in2="blurOut3" mode="normal"/></filter></defs><g><text fill="#000000" font-family="sans-serif" font-size="18" lengthAdjust="spacing" textLength="243" x="159.5" y="16.708">[Code] Blog Post Controller</text><!--MD5=[58506b7fc782ff127a1a962d1768a9cc]
cluster edu.tec.ic6821.blog--><polygon fill="#FFFFFF" filter="url(#f1b0uqkf8bd6xc)" points="16,26.9531,180,26.9531,187,49.25,558,49.25,558,551.9531,16,551.9531,16,26.9531" style="stroke:#000000;stroke-width:1.5;"/><line style="stroke:#000000;stroke-width:1.5;" x1="16" x2="187" y1="49.25" y2="49.25"/><text fill="#000000" font-family="sans-serif" font-size="14" font-weight="bold" lengthAdjust="spacing" textLength="158" x="20" y="41.9482">edu.tec.ic6821.blog</text><!--MD5=[68c2612fde5fb6affd293dc67938e0a2]
cluster posts--><polygon fill="#FFFFFF" filter="url(#f1b0uqkf8bd6xc)" points="40,69.9531,89,69.9531,96,92.25,534,92.25,534,340.9531,40,340.9531,40,69.9531" style="stroke:#000000;stroke-width:1.5;"/><line style="stroke:#000000;stroke-width:1.5;" x1="40" x2="96" y1="92.25" y2="92.25"/><text fill="#000000" font-family="sans-serif" font-size="14" font-weight="bold" lengthAdjust="spacing" textLength="43" x="44" y="84.9482">posts</text><!--MD5=[169dac24f8e3e1eefdb1b9a332ff451c]
cluster model.posts--><polygon fill="#FFFFFF" filter="url(#f1b0uqkf8bd6xc)" points="102,364.9531,206,364.9531,213,387.25,292,387.25,292,527.9531,102,527.9531,102,364.9531" style="stroke:#000000;stroke-width:1.5;"/><line style="stroke:#000000;stroke-width:1.5;" x1="102" x2="213" y1="387.25" y2="387.25"/><text fill="#000000" font-family="sans-serif" font-size="14" font-weight="bold" lengthAdjust="spacing" textLength="98" x="106" y="379.9482">model.posts</text><!--MD5=[3e002d90817961157d240122581ca1e2]
class PostController--><rect codeLine="7" fill="#FEFECE" filter="url(#f1b0uqkf8bd6xc)" height="60.8047" id="PostController" style="stroke:#A80036;stroke-width:1.5;" width="177" x="224.5" y="104.9531"/><ellipse cx="267.4" cy="120.9531" fill="#ADD1B2" rx="11" ry="11" style="stroke:#A80036;stroke-width:1.0;"/><path d="M269.8688,126.8281 Q269.2906,127.1406 268.65,127.2969 Q268.0094,127.4531 267.3063,127.4531 Q264.8063,127.4531 263.4781,125.7813 Q262.1656,124.1094 262.1656,120.9531 Q262.1656,117.7969 263.4781,116.125 Q264.8063,114.4531 267.3063,114.4531 Q268.0094,114.4531 268.65,114.6094 Q269.3063,114.7656 269.8688,115.0781 L269.8688,117.875 Q269.2438,117.3125 268.65,117.0469 Q268.0563,116.7656 267.4313,116.7656 Q266.0875,116.7656 265.4,117.8281 Q264.7125,118.8906 264.7125,120.9531 Q264.7125,123.0313 265.4,124.0938 Q266.0875,125.1406 267.4313,125.1406 Q268.0563,125.1406 268.65,124.875 Q269.2438,124.6094 269.8688,124.0313 L269.8688,126.8281 Z " fill="#000000"/><text fill="#000000" font-family="sans-serif" font-size="12" lengthAdjust="spacing" textLength="83" x="287.6" y="125.1074">PostController</text><line style="stroke:#A80036;stroke-width:1.5;" x1="225.5" x2="400.5" y1="136.9531" y2="136.9531"/><line style="stroke:#A80036;stroke-width:1.5;" x1="225.5" x2="400.5" y1="144.9531" y2="144.9531"/><text fill="#000000" font-family="sans-serif" font-size="11" lengthAdjust="spacing" textLength="165" x="230.5" y="159.1636">findByExtId(:String): PostDTO</text><!--MD5=[43046b2811d103cba6940a1623664b28]
class PostService--><rect codeLine="11" fill="#FEFECE" filter="url(#f1b0uqkf8bd6xc)" height="73.6094" id="PostService" style="stroke:#A80036;stroke-width:1.5;" width="281" x="56.5" y="238.4531"/><ellipse cx="158.25" cy="254.4531" fill="#B4A7E5" rx="11" ry="11" style="stroke:#A80036;stroke-width:1.0;"/><path d="M154.6719,250.2344 L154.6719,247.9531 L162.0625,247.9531 L162.0625,250.2344 L159.5938,250.2344 L159.5938,258.6875 L162.0625,258.6875 L162.0625,260.9531 L154.6719,260.9531 L154.6719,258.6875 L157.1406,258.6875 L157.1406,250.2344 L154.6719,250.2344 Z " fill="#000000"/><text fill="#000000" font-family="sans-serif" font-size="12" font-style="italic" lengthAdjust="spacing" textLength="69" x="178.75" y="258.6074">PostService</text><line style="stroke:#A80036;stroke-width:1.5;" x1="57.5" x2="336.5" y1="270.4531" y2="270.4531"/><line style="stroke:#A80036;stroke-width:1.5;" x1="57.5" x2="336.5" y1="278.4531" y2="278.4531"/><text fill="#000000" font-family="sans-serif" font-size="11" lengthAdjust="spacing" textLength="269" x="62.5" y="292.6636">findByUserExtId(:String): Optional&lt;List&lt;Post&gt;&gt;</text><text fill="#000000" font-family="sans-serif" font-size="11" lengthAdjust="spacing" textLength="206" x="62.5" y="305.4683">findByExtId(:String): Optional&lt;Post&gt;</text><!--MD5=[d6aab16a60b80360ef6a167830cdd305]
class PostDTO--><rect codeLine="18" fill="#FEFECE" filter="url(#f1b0uqkf8bd6xc)" height="99.2188" id="PostDTO" style="stroke:#A80036;stroke-width:1.5;" width="145" x="372.5" y="225.9531"/><ellipse cx="415.85" cy="241.9531" fill="#ADD1B2" rx="11" ry="11" style="stroke:#A80036;stroke-width:1.0;"/><path d="M418.3188,247.8281 Q417.7406,248.1406 417.1,248.2969 Q416.4594,248.4531 415.7563,248.4531 Q413.2563,248.4531 411.9281,246.7813 Q410.6156,245.1094 410.6156,241.9531 Q410.6156,238.7969 411.9281,237.125 Q413.2563,235.4531 415.7563,235.4531 Q416.4594,235.4531 417.1,235.6094 Q417.7563,235.7656 418.3188,236.0781 L418.3188,238.875 Q417.6938,238.3125 417.1,238.0469 Q416.5063,237.7656 415.8813,237.7656 Q414.5375,237.7656 413.85,238.8281 Q413.1625,239.8906 413.1625,241.9531 Q413.1625,244.0313 413.85,245.0938 Q414.5375,246.1406 415.8813,246.1406 Q416.5063,246.1406 417.1,245.875 Q417.6938,245.6094 418.3188,245.0313 L418.3188,247.8281 Z " fill="#000000"/><text fill="#000000" font-family="sans-serif" font-size="12" lengthAdjust="spacing" textLength="50" x="436.15" y="246.1074">PostDTO</text><line style="stroke:#A80036;stroke-width:1.5;" x1="373.5" x2="516.5" y1="257.9531" y2="257.9531"/><rect fill="none" height="6" style="stroke:#C82930;stroke-width:1.0;" width="6" x="380.5" y="265.9531"/><text fill="#000000" font-family="sans-serif" font-size="11" lengthAdjust="spacing" textLength="69" x="392.5" y="272.1636">extId: String</text><rect fill="none" height="6" style="stroke:#C82930;stroke-width:1.0;" width="6" x="380.5" y="278.7578"/><text fill="#000000" font-family="sans-serif" font-size="11" lengthAdjust="spacing" textLength="62" x="392.5" y="284.9683">title: String</text><rect fill="none" height="6" style="stroke:#C82930;stroke-width:1.0;" width="6" x="380.5" y="291.5625"/><text fill="#000000" font-family="sans-serif" font-size="11" lengthAdjust="spacing" textLength="69" x="392.5" y="297.7729">body: String</text><line style="stroke:#A80036;stroke-width:1.5;" x1="373.5" x2="516.5" y1="304.3672" y2="304.3672"/><ellipse cx="383.5" cy="315.3672" fill="#84BE84" rx="3" ry="3" style="stroke:#038048;stroke-width:1.0;"/><text fill="#000000" font-family="sans-serif" font-size="11" lengthAdjust="spacing" text-decoration="underline" textLength="119" x="392.5" y="318.5776">from(:Post): PostDTO</text><!--MD5=[9bb0bdd047fba1a3c8d48282c35b4537]
class Post--><rect codeLine="29" fill="#FEFECE" filter="url(#f1b0uqkf8bd6xc)" height="112.0234" id="Post" style="stroke:#A80036;stroke-width:1.5;" width="157" x="118.5" y="399.9531"/><ellipse cx="180.25" cy="415.9531" fill="#ADD1B2" rx="11" ry="11" style="stroke:#A80036;stroke-width:1.0;"/><path d="M182.7188,421.8281 Q182.1406,422.1406 181.5,422.2969 Q180.8594,422.4531 180.1563,422.4531 Q177.6563,422.4531 176.3281,420.7813 Q175.0156,419.1094 175.0156,415.9531 Q175.0156,412.7969 176.3281,411.125 Q177.6563,409.4531 180.1563,409.4531 Q180.8594,409.4531 181.5,409.6094 Q182.1563,409.7656 182.7188,410.0781 L182.7188,412.875 Q182.0938,412.3125 181.5,412.0469 Q180.9063,411.7656 180.2813,411.7656 Q178.9375,411.7656 178.25,412.8281 Q177.5625,413.8906 177.5625,415.9531 Q177.5625,418.0313 178.25,419.0938 Q178.9375,420.1406 180.2813,420.1406 Q180.9063,420.1406 181.5,419.875 Q182.0938,419.6094 182.7188,419.0313 L182.7188,421.8281 Z " fill="#000000"/><text fill="#000000" font-family="sans-serif" font-size="12" lengthAdjust="spacing" textLength="25" x="200.75" y="420.1074">Post</text><line style="stroke:#A80036;stroke-width:1.5;" x1="119.5" x2="274.5" y1="431.9531" y2="431.9531"/><rect fill="none" height="6" style="stroke:#C82930;stroke-width:1.0;" width="6" x="126.5" y="439.9531"/><text fill="#000000" font-family="sans-serif" font-size="11" lengthAdjust="spacing" textLength="106" x="138.5" y="446.1636">integrationId: Long</text><rect fill="none" height="6" style="stroke:#C82930;stroke-width:1.0;" width="6" x="126.5" y="452.7578"/><text fill="#000000" font-family="sans-serif" font-size="11" lengthAdjust="spacing" textLength="131" x="138.5" y="458.9683">userIntegrationId: Long</text><rect fill="none" height="6" style="stroke:#C82930;stroke-width:1.0;" width="6" x="126.5" y="465.5625"/><text fill="#000000" font-family="sans-serif" font-size="11" lengthAdjust="spacing" textLength="70" x="138.5" y="471.7729">userId: Long</text><rect fill="none" height="6" style="stroke:#C82930;stroke-width:1.0;" width="6" x="126.5" y="478.3672"/><text fill="#000000" font-family="sans-serif" font-size="11" lengthAdjust="spacing" textLength="62" x="138.5" y="484.5776">title: String</text><rect fill="none" height="6" style="stroke:#C82930;stroke-width:1.0;" width="6" x="126.5" y="491.1719"/><text fill="#000000" font-family="sans-serif" font-size="11" lengthAdjust="spacing" textLength="69" x="138.5" y="497.3823">body: String</text><line style="stroke:#A80036;stroke-width:1.5;" x1="119.5" x2="274.5" y1="503.9766" y2="503.9766"/><!--MD5=[5e12e6b4c577d0f868f87c482ec0c932]
link PostController to PostService--><path codeLine="16" d="M288.12,166.0531 C271.38,185.9631 249.12,212.4531 230.79,234.2531 " fill="none" id="PostController-to-PostService" style="stroke:#A80036;stroke-width:1.0;"/><polygon fill="#A80036" points="227.41,238.2731,236.2604,233.9522,230.625,234.4438,230.1334,228.8083,227.41,238.2731" style="stroke:#A80036;stroke-width:1.0;"/><!--MD5=[9823b6dd37c8effa47d97da143c2a6db]
link PostController to PostDTO--><path codeLine="25" d="M341.32,166.0531 C356.94,182.3931 376.8,203.1531 394.95,222.1331 " fill="none" id="PostController-to-PostDTO" style="stroke:#A80036;stroke-width:1.0;stroke-dasharray:7.0,7.0;"/><polygon fill="#A80036" points="398.56,225.9031,395.2296,216.6345,395.1039,222.2899,389.4484,222.1642,398.56,225.9031" style="stroke:#A80036;stroke-width:1.0;"/><!--MD5=[8fac5bbc7181a64f3d41ff4eaca9d3ee]
link PostService to Post--><path codeLine="38" d="M197,312.5731 C197,336.1631 197,367.5431 197,394.8431 " fill="none" id="PostService-to-Post" style="stroke:#A80036;stroke-width:1.0;stroke-dasharray:7.0,7.0;"/><polygon fill="#A80036" points="197,399.8831,201,390.8831,197,394.8831,193,390.8831,197,399.8831" style="stroke:#A80036;stroke-width:1.0;"/><!--MD5=[ef6237c8cd045b766450199537419175]
@startuml

title [Code] Blog Post Controller

package edu.tec.ic6821.blog {
    package posts {

        class PostController {
            findByExtId(:String): PostDTO
        }

        interface PostService {
            findByUserExtId(:String): Optional<List<Post>>
            findByExtId(:String): Optional<Post>
        }

        PostController - -> PostService

        class PostDTO {
            - extId: String
            - title: String
            - body: String
            + {static} from(:Post): PostDTO
        }

        PostController ..> PostDTO
    }

    package model.posts {
        class Post {
            - integrationId: Long
            - userIntegrationId: Long
            - userId: Long
            - title: String
            - body: String
        }
    }

    PostService ..> Post
}

@enduml

PlantUML version 1.2021.11(Sat Oct 02 07:26:11 CST 2021)
(GPL source distribution)
Java Runtime: OpenJDK Runtime Environment
JVM: OpenJDK 64-Bit Server VM
Default Encoding: UTF-8
Language: en
Country: US
--></g></svg>