<?xml version="1.0" encoding="UTF-8" standalone="no"?><svg xmlns="http://www.w3.org/2000/svg" xmlns:xlink="http://www.w3.org/1999/xlink" contentScriptType="application/ecmascript" contentStyleType="text/css" height="597px" preserveAspectRatio="none" style="width:1044px;height:597px;background:#FFFFFF;" version="1.1" viewBox="0 0 1044 597" width="1044px" zoomAndPan="magnify"><defs><filter height="300%" id="f14c46qhjcgsii" width="300%" x="-1" y="-1"><feGaussianBlur result="blurOut" stdDeviation="2.0"/><feColorMatrix in="blurOut" result="blurOut2" type="matrix" values="0 0 0 0 0 0 0 0 0 0 0 0 0 0 0 0 0 0 .4 0"/><feOffset dx="4.0" dy="4.0" in="blurOut2" result="blurOut3"/><feBlend in="SourceGraphic" in2="blurOut3" mode="normal"/></filter></defs><g><text fill="#000000" font-family="sans-serif" font-size="18" lengthAdjust="spacing" textLength="245" x="393" y="16.708">[Code] Blog User Controller</text><!--MD5=[58506b7fc782ff127a1a962d1768a9cc]
cluster edu.tec.ic6821.blog--><polygon fill="#FFFFFF" filter="url(#f14c46qhjcgsii)" points="16,26.9531,180,26.9531,187,49.25,1027,49.25,1027,590.9531,16,590.9531,16,26.9531" style="stroke:#000000;stroke-width:1.5;"/><line style="stroke:#000000;stroke-width:1.5;" x1="16" x2="187" y1="49.25" y2="49.25"/><text fill="#000000" font-family="sans-serif" font-size="14" font-weight="bold" lengthAdjust="spacing" textLength="158" x="20" y="41.9482">edu.tec.ic6821.blog</text><!--MD5=[3063470ff00343f127a4682df62b6479]
cluster users--><polygon fill="#FFFFFF" filter="url(#f14c46qhjcgsii)" points="40,69.9531,89,69.9531,96,92.25,1003,92.25,1003,379.9531,40,379.9531,40,69.9531" style="stroke:#000000;stroke-width:1.5;"/><line style="stroke:#000000;stroke-width:1.5;" x1="40" x2="96" y1="92.25" y2="92.25"/><text fill="#000000" font-family="sans-serif" font-size="14" font-weight="bold" lengthAdjust="spacing" textLength="43" x="44" y="84.9482">users</text><!--MD5=[169dac24f8e3e1eefdb1b9a332ff451c]
cluster model.posts--><polygon fill="#FFFFFF" filter="url(#f14c46qhjcgsii)" points="102,403.9531,206,403.9531,213,426.25,292,426.25,292,566.9531,102,566.9531,102,403.9531" style="stroke:#000000;stroke-width:1.5;"/><line style="stroke:#000000;stroke-width:1.5;" x1="102" x2="213" y1="426.25" y2="426.25"/><text fill="#000000" font-family="sans-serif" font-size="14" font-weight="bold" lengthAdjust="spacing" textLength="98" x="106" y="418.9482">model.posts</text><!--MD5=[051bee5167da1a775f82b47e33bd77a3]
cluster model.users--><polygon fill="#FFFFFF" filter="url(#f14c46qhjcgsii)" points="416,403.9531,520,403.9531,527,426.25,580,426.25,580,566.9531,416,566.9531,416,403.9531" style="stroke:#000000;stroke-width:1.5;"/><line style="stroke:#000000;stroke-width:1.5;" x1="416" x2="527" y1="426.25" y2="426.25"/><text fill="#000000" font-family="sans-serif" font-size="14" font-weight="bold" lengthAdjust="spacing" textLength="98" x="420" y="418.9482">model.users</text><!--MD5=[29f97d496cbdc4ec81664c6d94dc9bf6]
class UserController--><rect codeLine="7" fill="#FEFECE" filter="url(#f14c46qhjcgsii)" height="73.6094" id="UserController" style="stroke:#A80036;stroke-width:1.5;" width="270" x="479" y="104.9531"/><ellipse cx="567.25" cy="120.9531" fill="#ADD1B2" rx="11" ry="11" style="stroke:#A80036;stroke-width:1.0;"/><path d="M569.7188,126.8281 Q569.1406,127.1406 568.5,127.2969 Q567.8594,127.4531 567.1563,127.4531 Q564.6563,127.4531 563.3281,125.7813 Q562.0156,124.1094 562.0156,120.9531 Q562.0156,117.7969 563.3281,116.125 Q564.6563,114.4531 567.1563,114.4531 Q567.8594,114.4531 568.5,114.6094 Q569.1563,114.7656 569.7188,115.0781 L569.7188,117.875 Q569.0938,117.3125 568.5,117.0469 Q567.9063,116.7656 567.2813,116.7656 Q565.9375,116.7656 565.25,117.8281 Q564.5625,118.8906 564.5625,120.9531 Q564.5625,123.0313 565.25,124.0938 Q565.9375,125.1406 567.2813,125.1406 Q567.9063,125.1406 568.5,124.875 Q569.0938,124.6094 569.7188,124.0313 L569.7188,126.8281 Z " fill="#000000"/><text fill="#000000" font-family="sans-serif" font-size="12" lengthAdjust="spacing" textLength="85" x="587.75" y="125.1074">UserController</text><line style="stroke:#A80036;stroke-width:1.5;" x1="480" x2="748" y1="136.9531" y2="136.9531"/><line style="stroke:#A80036;stroke-width:1.5;" x1="480" x2="748" y1="144.9531" y2="144.9531"/><text fill="#000000" font-family="sans-serif" font-size="11" lengthAdjust="spacing" textLength="258" x="485" y="159.1636">findPostsByUserExtId(:String): List&lt;PostDTO&gt;</text><text fill="#000000" font-family="sans-serif" font-size="11" lengthAdjust="spacing" textLength="197" x="485" y="171.9683">findByUsername(:String): UserDTO</text><!--MD5=[43046b2811d103cba6940a1623664b28]
class PostService--><rect codeLine="12" fill="#FEFECE" filter="url(#f14c46qhjcgsii)" height="73.6094" id="PostService" style="stroke:#A80036;stroke-width:1.5;" width="281" x="56.5" y="264.4531"/><ellipse cx="158.25" cy="280.4531" fill="#B4A7E5" rx="11" ry="11" style="stroke:#A80036;stroke-width:1.0;"/><path d="M154.6719,276.2344 L154.6719,273.9531 L162.0625,273.9531 L162.0625,276.2344 L159.5938,276.2344 L159.5938,284.6875 L162.0625,284.6875 L162.0625,286.9531 L154.6719,286.9531 L154.6719,284.6875 L157.1406,284.6875 L157.1406,276.2344 L154.6719,276.2344 Z " fill="#000000"/><text fill="#000000" font-family="sans-serif" font-size="12" font-style="italic" lengthAdjust="spacing" textLength="69" x="178.75" y="284.6074">PostService</text><line style="stroke:#A80036;stroke-width:1.5;" x1="57.5" x2="336.5" y1="296.4531" y2="296.4531"/><line style="stroke:#A80036;stroke-width:1.5;" x1="57.5" x2="336.5" y1="304.4531" y2="304.4531"/><text fill="#000000" font-family="sans-serif" font-size="11" lengthAdjust="spacing" textLength="269" x="62.5" y="318.6636">findByUserExtId(:String): Optional&lt;List&lt;Post&gt;&gt;</text><text fill="#000000" font-family="sans-serif" font-size="11" lengthAdjust="spacing" textLength="206" x="62.5" y="331.4683">findByExtId(:String): Optional&lt;Post&gt;</text><!--MD5=[e4ac4745f81aec2db60ad4ddae80b659]
class UserService--><rect codeLine="17" fill="#FEFECE" filter="url(#f14c46qhjcgsii)" height="60.8047" id="UserService" style="stroke:#A80036;stroke-width:1.5;" width="250" x="373" y="270.9531"/><ellipse cx="458.25" cy="286.9531" fill="#B4A7E5" rx="11" ry="11" style="stroke:#A80036;stroke-width:1.0;"/><path d="M454.6719,282.7344 L454.6719,280.4531 L462.0625,280.4531 L462.0625,282.7344 L459.5938,282.7344 L459.5938,291.1875 L462.0625,291.1875 L462.0625,293.4531 L454.6719,293.4531 L454.6719,291.1875 L457.1406,291.1875 L457.1406,282.7344 L454.6719,282.7344 Z " fill="#000000"/><text fill="#000000" font-family="sans-serif" font-size="12" font-style="italic" lengthAdjust="spacing" textLength="71" x="478.75" y="291.1074">UserService</text><line style="stroke:#A80036;stroke-width:1.5;" x1="374" x2="622" y1="302.9531" y2="302.9531"/><line style="stroke:#A80036;stroke-width:1.5;" x1="374" x2="622" y1="310.9531" y2="310.9531"/><text fill="#000000" font-family="sans-serif" font-size="11" lengthAdjust="spacing" textLength="238" x="379" y="325.1636">findByUsername(:String): Optional&lt;User&gt;</text><!--MD5=[d6aab16a60b80360ef6a167830cdd305]
class PostDTO--><rect codeLine="24" fill="#FEFECE" filter="url(#f14c46qhjcgsii)" height="99.2188" id="PostDTO" style="stroke:#A80036;stroke-width:1.5;" width="145" x="658.5" y="251.9531"/><ellipse cx="701.85" cy="267.9531" fill="#ADD1B2" rx="11" ry="11" style="stroke:#A80036;stroke-width:1.0;"/><path d="M704.3188,273.8281 Q703.7406,274.1406 703.1,274.2969 Q702.4594,274.4531 701.7563,274.4531 Q699.2563,274.4531 697.9281,272.7813 Q696.6156,271.1094 696.6156,267.9531 Q696.6156,264.7969 697.9281,263.125 Q699.2563,261.4531 701.7563,261.4531 Q702.4594,261.4531 703.1,261.6094 Q703.7563,261.7656 704.3188,262.0781 L704.3188,264.875 Q703.6938,264.3125 703.1,264.0469 Q702.5063,263.7656 701.8813,263.7656 Q700.5375,263.7656 699.85,264.8281 Q699.1625,265.8906 699.1625,267.9531 Q699.1625,270.0313 699.85,271.0938 Q700.5375,272.1406 701.8813,272.1406 Q702.5063,272.1406 703.1,271.875 Q703.6938,271.6094 704.3188,271.0313 L704.3188,273.8281 Z " fill="#000000"/><text fill="#000000" font-family="sans-serif" font-size="12" lengthAdjust="spacing" textLength="50" x="722.15" y="272.1074">PostDTO</text><line style="stroke:#A80036;stroke-width:1.5;" x1="659.5" x2="802.5" y1="283.9531" y2="283.9531"/><rect fill="none" height="6" style="stroke:#C82930;stroke-width:1.0;" width="6" x="666.5" y="291.9531"/><text fill="#000000" font-family="sans-serif" font-size="11" lengthAdjust="spacing" textLength="69" x="678.5" y="298.1636">extId: String</text><rect fill="none" height="6" style="stroke:#C82930;stroke-width:1.0;" width="6" x="666.5" y="304.7578"/><text fill="#000000" font-family="sans-serif" font-size="11" lengthAdjust="spacing" textLength="62" x="678.5" y="310.9683">title: String</text><rect fill="none" height="6" style="stroke:#C82930;stroke-width:1.0;" width="6" x="666.5" y="317.5625"/><text fill="#000000" font-family="sans-serif" font-size="11" lengthAdjust="spacing" textLength="69" x="678.5" y="323.7729">body: String</text><line style="stroke:#A80036;stroke-width:1.5;" x1="659.5" x2="802.5" y1="330.3672" y2="330.3672"/><ellipse cx="669.5" cy="341.3672" fill="#84BE84" rx="3" ry="3" style="stroke:#038048;stroke-width:1.0;"/><text fill="#000000" font-family="sans-serif" font-size="11" lengthAdjust="spacing" text-decoration="underline" textLength="119" x="678.5" y="344.5776">from(:Post): PostDTO</text><!--MD5=[a5b40ab6867253cbae57d257f30bbbb8]
class UserDTO--><rect codeLine="31" fill="#FEFECE" filter="url(#f14c46qhjcgsii)" height="124.8281" id="UserDTO" style="stroke:#A80036;stroke-width:1.5;" width="149" x="838.5" y="238.9531"/><ellipse cx="882.75" cy="254.9531" fill="#ADD1B2" rx="11" ry="11" style="stroke:#A80036;stroke-width:1.0;"/><path d="M885.2188,260.8281 Q884.6406,261.1406 884,261.2969 Q883.3594,261.4531 882.6563,261.4531 Q880.1563,261.4531 878.8281,259.7813 Q877.5156,258.1094 877.5156,254.9531 Q877.5156,251.7969 878.8281,250.125 Q880.1563,248.4531 882.6563,248.4531 Q883.3594,248.4531 884,248.6094 Q884.6563,248.7656 885.2188,249.0781 L885.2188,251.875 Q884.5938,251.3125 884,251.0469 Q883.4063,250.7656 882.7813,250.7656 Q881.4375,250.7656 880.75,251.8281 Q880.0625,252.8906 880.0625,254.9531 Q880.0625,257.0313 880.75,258.0938 Q881.4375,259.1406 882.7813,259.1406 Q883.4063,259.1406 884,258.875 Q884.5938,258.6094 885.2188,258.0313 L885.2188,260.8281 Z " fill="#000000"/><text fill="#000000" font-family="sans-serif" font-size="12" lengthAdjust="spacing" textLength="52" x="903.25" y="259.1074">UserDTO</text><line style="stroke:#A80036;stroke-width:1.5;" x1="839.5" x2="986.5" y1="270.9531" y2="270.9531"/><rect fill="none" height="6" style="stroke:#C82930;stroke-width:1.0;" width="6" x="846.5" y="278.9531"/><text fill="#000000" font-family="sans-serif" font-size="11" lengthAdjust="spacing" textLength="69" x="858.5" y="285.1636">extId: String</text><rect fill="none" height="6" style="stroke:#C82930;stroke-width:1.0;" width="6" x="846.5" y="291.7578"/><text fill="#000000" font-family="sans-serif" font-size="11" lengthAdjust="spacing" textLength="98" x="858.5" y="297.9683">username: String</text><rect fill="none" height="6" style="stroke:#C82930;stroke-width:1.0;" width="6" x="846.5" y="304.5625"/><text fill="#000000" font-family="sans-serif" font-size="11" lengthAdjust="spacing" textLength="73" x="858.5" y="310.7729">name: String</text><rect fill="none" height="6" style="stroke:#C82930;stroke-width:1.0;" width="6" x="846.5" y="317.3672"/><text fill="#000000" font-family="sans-serif" font-size="11" lengthAdjust="spacing" textLength="72" x="858.5" y="323.5776">email: String</text><rect fill="none" height="6" style="stroke:#C82930;stroke-width:1.0;" width="6" x="846.5" y="330.1719"/><text fill="#000000" font-family="sans-serif" font-size="11" lengthAdjust="spacing" textLength="86" x="858.5" y="336.3823">zipCode: String</text><line style="stroke:#A80036;stroke-width:1.5;" x1="839.5" x2="986.5" y1="342.9766" y2="342.9766"/><ellipse cx="849.5" cy="353.9766" fill="#84BE84" rx="3" ry="3" style="stroke:#038048;stroke-width:1.0;"/><text fill="#000000" font-family="sans-serif" font-size="11" lengthAdjust="spacing" text-decoration="underline" textLength="123" x="858.5" y="357.187">from(:User): UserDTO</text><!--MD5=[9bb0bdd047fba1a3c8d48282c35b4537]
class Post--><rect codeLine="45" fill="#FEFECE" filter="url(#f14c46qhjcgsii)" height="112.0234" id="Post" style="stroke:#A80036;stroke-width:1.5;" width="157" x="118.5" y="438.9531"/><ellipse cx="180.25" cy="454.9531" fill="#ADD1B2" rx="11" ry="11" style="stroke:#A80036;stroke-width:1.0;"/><path d="M182.7188,460.8281 Q182.1406,461.1406 181.5,461.2969 Q180.8594,461.4531 180.1563,461.4531 Q177.6563,461.4531 176.3281,459.7813 Q175.0156,458.1094 175.0156,454.9531 Q175.0156,451.7969 176.3281,450.125 Q177.6563,448.4531 180.1563,448.4531 Q180.8594,448.4531 181.5,448.6094 Q182.1563,448.7656 182.7188,449.0781 L182.7188,451.875 Q182.0938,451.3125 181.5,451.0469 Q180.9063,450.7656 180.2813,450.7656 Q178.9375,450.7656 178.25,451.8281 Q177.5625,452.8906 177.5625,454.9531 Q177.5625,457.0313 178.25,458.0938 Q178.9375,459.1406 180.2813,459.1406 Q180.9063,459.1406 181.5,458.875 Q182.0938,458.6094 182.7188,458.0313 L182.7188,460.8281 Z " fill="#000000"/><text fill="#000000" font-family="sans-serif" font-size="12" lengthAdjust="spacing" textLength="25" x="200.75" y="459.1074">Post</text><line style="stroke:#A80036;stroke-width:1.5;" x1="119.5" x2="274.5" y1="470.9531" y2="470.9531"/><rect fill="none" height="6" style="stroke:#C82930;stroke-width:1.0;" width="6" x="126.5" y="478.9531"/><text fill="#000000" font-family="sans-serif" font-size="11" lengthAdjust="spacing" textLength="106" x="138.5" y="485.1636">integrationId: Long</text><rect fill="none" height="6" style="stroke:#C82930;stroke-width:1.0;" width="6" x="126.5" y="491.7578"/><text fill="#000000" font-family="sans-serif" font-size="11" lengthAdjust="spacing" textLength="131" x="138.5" y="497.9683">userIntegrationId: Long</text><rect fill="none" height="6" style="stroke:#C82930;stroke-width:1.0;" width="6" x="126.5" y="504.5625"/><text fill="#000000" font-family="sans-serif" font-size="11" lengthAdjust="spacing" textLength="70" x="138.5" y="510.7729">userId: Long</text><rect fill="none" height="6" style="stroke:#C82930;stroke-width:1.0;" width="6" x="126.5" y="517.3672"/><text fill="#000000" font-family="sans-serif" font-size="11" lengthAdjust="spacing" textLength="62" x="138.5" y="523.5776">title: String</text><rect fill="none" height="6" style="stroke:#C82930;stroke-width:1.0;" width="6" x="126.5" y="530.1719"/><text fill="#000000" font-family="sans-serif" font-size="11" lengthAdjust="spacing" textLength="69" x="138.5" y="536.3823">body: String</text><line style="stroke:#A80036;stroke-width:1.5;" x1="119.5" x2="274.5" y1="542.9766" y2="542.9766"/><!--MD5=[3fd616f346a44cd59a91eb10b19e157c]
class User--><rect codeLine="55" fill="#FEFECE" filter="url(#f14c46qhjcgsii)" height="112.0234" id="User" style="stroke:#A80036;stroke-width:1.5;" width="132" x="432" y="438.9531"/><ellipse cx="480.25" cy="454.9531" fill="#ADD1B2" rx="11" ry="11" style="stroke:#A80036;stroke-width:1.0;"/><path d="M482.7188,460.8281 Q482.1406,461.1406 481.5,461.2969 Q480.8594,461.4531 480.1563,461.4531 Q477.6563,461.4531 476.3281,459.7813 Q475.0156,458.1094 475.0156,454.9531 Q475.0156,451.7969 476.3281,450.125 Q477.6563,448.4531 480.1563,448.4531 Q480.8594,448.4531 481.5,448.6094 Q482.1563,448.7656 482.7188,449.0781 L482.7188,451.875 Q482.0938,451.3125 481.5,451.0469 Q480.9063,450.7656 480.2813,450.7656 Q478.9375,450.7656 478.25,451.8281 Q477.5625,452.8906 477.5625,454.9531 Q477.5625,457.0313 478.25,458.0938 Q478.9375,459.1406 480.2813,459.1406 Q480.9063,459.1406 481.5,458.875 Q482.0938,458.6094 482.7188,458.0313 L482.7188,460.8281 Z " fill="#000000"/><text fill="#000000" font-family="sans-serif" font-size="12" lengthAdjust="spacing" textLength="27" x="500.75" y="459.1074">User</text><line style="stroke:#A80036;stroke-width:1.5;" x1="433" x2="563" y1="470.9531" y2="470.9531"/><rect fill="none" height="6" style="stroke:#C82930;stroke-width:1.0;" width="6" x="440" y="478.9531"/><text fill="#000000" font-family="sans-serif" font-size="11" lengthAdjust="spacing" textLength="106" x="452" y="485.1636">integrationId: Long</text><rect fill="none" height="6" style="stroke:#C82930;stroke-width:1.0;" width="6" x="440" y="491.7578"/><text fill="#000000" font-family="sans-serif" font-size="11" lengthAdjust="spacing" textLength="98" x="452" y="497.9683">username: String</text><rect fill="none" height="6" style="stroke:#C82930;stroke-width:1.0;" width="6" x="440" y="504.5625"/><text fill="#000000" font-family="sans-serif" font-size="11" lengthAdjust="spacing" textLength="73" x="452" y="510.7729">name: String</text><rect fill="none" height="6" style="stroke:#C82930;stroke-width:1.0;" width="6" x="440" y="517.3672"/><text fill="#000000" font-family="sans-serif" font-size="11" lengthAdjust="spacing" textLength="72" x="452" y="523.5776">email: String</text><rect fill="none" height="6" style="stroke:#C82930;stroke-width:1.0;" width="6" x="440" y="530.1719"/><text fill="#000000" font-family="sans-serif" font-size="11" lengthAdjust="spacing" textLength="86" x="452" y="536.3823">zipCode: String</text><line style="stroke:#A80036;stroke-width:1.5;" x1="433" x2="563" y1="542.9766" y2="542.9766"/><!--MD5=[24950bc54895f33afc2647af6e65f42d]
link UserController to UserService--><path codeLine="21" d="M587.39,179.0831 C567.96,205.4631 541.81,240.9731 522.81,266.7631 " fill="none" id="UserController-to-UserService" style="stroke:#A80036;stroke-width:1.0;"/><polygon fill="#A80036" points="519.83,270.8231,528.3914,265.9546,522.7979,266.7993,521.9532,261.2059,519.83,270.8231" style="stroke:#A80036;stroke-width:1.0;"/><!--MD5=[9a52ab29f0a5d330a4d6ec38db02865d]
link UserController to PostService--><path codeLine="22" d="M516.19,179.0131 C467.91,196.8931 408.84,218.9031 356,238.9531 C336.15,246.4831 314.93,254.6231 294.68,262.4431 " fill="none" id="UserController-to-PostService" style="stroke:#A80036;stroke-width:1.0;"/><polygon fill="#A80036" points="289.83,264.3131,299.6663,264.8097,294.4956,262.5154,296.7899,257.3447,289.83,264.3131" style="stroke:#A80036;stroke-width:1.0;"/><!--MD5=[a850dfe932502f56f53bec55a53c7a73]
link UserController to PostDTO--><path codeLine="40" d="M640.84,179.0831 C655.96,199.4331 675.11,225.2131 691.87,247.7731 " fill="none" id="UserController-to-PostDTO" style="stroke:#A80036;stroke-width:1.0;stroke-dasharray:7.0,7.0;"/><polygon fill="#A80036" points="694.97,251.9531,692.8084,242.3444,691.986,247.9412,686.3893,247.1188,694.97,251.9531" style="stroke:#A80036;stroke-width:1.0;"/><!--MD5=[22019e5b0880ece44a85ee4412fdea28]
link UserController to UserDTO--><path codeLine="41" d="M699.58,179.0531 C737.46,195.9431 782.14,217.1331 821,238.9531 C825.27,241.3531 829.6,243.8831 833.95,246.4931 " fill="none" id="UserController-to-UserDTO" style="stroke:#A80036;stroke-width:1.0;stroke-dasharray:7.0,7.0;"/><polygon fill="#A80036" points="838.29,249.1331,832.682,241.0368,834.019,246.5334,828.5224,247.8704,838.29,249.1331" style="stroke:#A80036;stroke-width:1.0;"/><!--MD5=[8fac5bbc7181a64f3d41ff4eaca9d3ee]
link PostService to Post--><path codeLine="64" d="M197,338.4731 C197,365.2031 197,402.2731 197,433.5231 " fill="none" id="PostService-to-Post" style="stroke:#A80036;stroke-width:1.0;stroke-dasharray:7.0,7.0;"/><polygon fill="#A80036" points="197,438.8831,201,429.8831,197,433.8831,193,429.8831,197,438.8831" style="stroke:#A80036;stroke-width:1.0;"/><!--MD5=[e454b6428d3e152525845c1b2c50e263]
link UserService to User--><path codeLine="65" d="M498,331.9531 C498,358.8431 498,399.4031 498,433.2131 " fill="none" id="UserService-to-User" style="stroke:#A80036;stroke-width:1.0;stroke-dasharray:7.0,7.0;"/><polygon fill="#A80036" points="498,438.5731,502,429.5731,498,433.5731,494,429.5731,498,438.5731" style="stroke:#A80036;stroke-width:1.0;"/><!--MD5=[5e8ff9364a145d85674124a107afd0fd]
@startuml

title [Code] Blog User Controller

package edu.tec.ic6821.blog {
    package users {

        class UserController {
            findPostsByUserExtId(:String): List<PostDTO>
            findByUsername(:String): UserDTO
        }

        interface PostService {
            findByUserExtId(:String): Optional<List<Post>>
            findByExtId(:String): Optional<Post>
        }

        interface UserService {
            findByUsername(:String): Optional<User>
        }

        UserController - -> UserService
        UserController - -> PostService

        class PostDTO {
            - extId: String
            - title: String
            - body: String
            + {static} from(:Post): PostDTO
        }

        class UserDTO {
            - extId: String
            - username: String
            - name: String
            - email: String
            - zipCode: String
            + {static} from(:User): UserDTO
        }

        UserController ..> PostDTO
        UserController ..> UserDTO
    }

    package model.posts {
        class Post {
            - integrationId: Long
            - userIntegrationId: Long
            - userId: Long
            - title: String
            - body: String
        }
    }

    package model.users {
        class User {
            - integrationId: Long
            - username: String
            - name: String
            - email: String
            - zipCode: String
        }
    }

    PostService ..> Post
    UserService ..> User
}

@enduml

PlantUML version 1.2021.11(Sat Oct 02 07:26:11 CST 2021)
(GPL source distribution)
Java Runtime: OpenJDK Runtime Environment
JVM: OpenJDK 64-Bit Server VM
Default Encoding: UTF-8
Language: en
Country: US
--></g></svg>