<?xml version="1.0" encoding="UTF-8" standalone="no"?><svg xmlns="http://www.w3.org/2000/svg" xmlns:xlink="http://www.w3.org/1999/xlink" contentScriptType="application/ecmascript" contentStyleType="text/css" height="679px" preserveAspectRatio="none" style="width:500px;height:679px;background:#FFFFFF;" version="1.1" viewBox="0 0 500 679" width="500px" zoomAndPan="magnify"><defs><filter height="300%" id="fjt5uptahh4xi" width="300%" x="-1" y="-1"><feGaussianBlur result="blurOut" stdDeviation="2.0"/><feColorMatrix in="blurOut" result="blurOut2" type="matrix" values="0 0 0 0 0 0 0 0 0 0 0 0 0 0 0 0 0 0 .4 0"/><feOffset dx="4.0" dy="4.0" in="blurOut2" result="blurOut3"/><feBlend in="SourceGraphic" in2="blurOut3" mode="normal"/></filter></defs><g><text fill="#000000" font-family="sans-serif" font-size="18" lengthAdjust="spacing" textLength="178" x="154.5" y="16.708">[Code] User Service</text><!--MD5=[58506b7fc782ff127a1a962d1768a9cc]
cluster edu.tec.ic6821.blog--><polygon fill="#FFFFFF" filter="url(#fjt5uptahh4xi)" points="16,26.9531,180,26.9531,187,49.25,483,49.25,483,672.9531,16,672.9531,16,26.9531" style="stroke:#000000;stroke-width:1.5;"/><line style="stroke:#000000;stroke-width:1.5;" x1="16" x2="187" y1="49.25" y2="49.25"/><text fill="#000000" font-family="sans-serif" font-size="14" font-weight="bold" lengthAdjust="spacing" textLength="158" x="20" y="41.9482">edu.tec.ic6821.blog</text><!--MD5=[3063470ff00343f127a4682df62b6479]
cluster users--><polygon fill="#FFFFFF" filter="url(#fjt5uptahh4xi)" points="152,69.9531,201,69.9531,208,92.25,434,92.25,434,289.9531,152,289.9531,152,69.9531" style="stroke:#000000;stroke-width:1.5;"/><line style="stroke:#000000;stroke-width:1.5;" x1="152" x2="208" y1="92.25" y2="92.25"/><text fill="#000000" font-family="sans-serif" font-size="14" font-weight="bold" lengthAdjust="spacing" textLength="43" x="156" y="84.9482">users</text><!--MD5=[051bee5167da1a775f82b47e33bd77a3]
cluster model.users--><polygon fill="#FFFFFF" filter="url(#fjt5uptahh4xi)" points="40,313.9531,144,313.9531,151,336.25,446,336.25,446,648.9531,40,648.9531,40,313.9531" style="stroke:#000000;stroke-width:1.5;"/><line style="stroke:#000000;stroke-width:1.5;" x1="40" x2="151" y1="336.25" y2="336.25"/><text fill="#000000" font-family="sans-serif" font-size="14" font-weight="bold" lengthAdjust="spacing" textLength="98" x="44" y="328.9482">model.users</text><!--MD5=[e4ac4745f81aec2db60ad4ddae80b659]
class UserService--><rect codeLine="7" fill="#FEFECE" filter="url(#fjt5uptahh4xi)" height="60.8047" id="UserService" style="stroke:#A80036;stroke-width:1.5;" width="250" x="168" y="104.9531"/><ellipse cx="253.25" cy="120.9531" fill="#B4A7E5" rx="11" ry="11" style="stroke:#A80036;stroke-width:1.0;"/><path d="M249.6719,116.7344 L249.6719,114.4531 L257.0625,114.4531 L257.0625,116.7344 L254.5938,116.7344 L254.5938,125.1875 L257.0625,125.1875 L257.0625,127.4531 L249.6719,127.4531 L249.6719,125.1875 L252.1406,125.1875 L252.1406,116.7344 L249.6719,116.7344 Z " fill="#000000"/><text fill="#000000" font-family="sans-serif" font-size="12" font-style="italic" lengthAdjust="spacing" textLength="71" x="273.75" y="125.1074">UserService</text><line style="stroke:#A80036;stroke-width:1.5;" x1="169" x2="417" y1="136.9531" y2="136.9531"/><line style="stroke:#A80036;stroke-width:1.5;" x1="169" x2="417" y1="144.9531" y2="144.9531"/><text fill="#000000" font-family="sans-serif" font-size="11" lengthAdjust="spacing" textLength="238" x="174" y="159.1636">findByUsername(:String): Optional&lt;User&gt;</text><!--MD5=[7ae4955753143fb0df2ba2d88a737f22]
class DefaultUserService--><rect codeLine="11" fill="#FEFECE" filter="url(#fjt5uptahh4xi)" height="48" id="DefaultUserService" style="stroke:#A80036;stroke-width:1.5;" width="146" x="194" y="225.9531"/><ellipse cx="209" cy="241.9531" fill="#ADD1B2" rx="11" ry="11" style="stroke:#A80036;stroke-width:1.0;"/><path d="M211.4688,247.8281 Q210.8906,248.1406 210.25,248.2969 Q209.6094,248.4531 208.9063,248.4531 Q206.4063,248.4531 205.0781,246.7813 Q203.7656,245.1094 203.7656,241.9531 Q203.7656,238.7969 205.0781,237.125 Q206.4063,235.4531 208.9063,235.4531 Q209.6094,235.4531 210.25,235.6094 Q210.9063,235.7656 211.4688,236.0781 L211.4688,238.875 Q210.8438,238.3125 210.25,238.0469 Q209.6563,237.7656 209.0313,237.7656 Q207.6875,237.7656 207,238.8281 Q206.3125,239.8906 206.3125,241.9531 Q206.3125,244.0313 207,245.0938 Q207.6875,246.1406 209.0313,246.1406 Q209.6563,246.1406 210.25,245.875 Q210.8438,245.6094 211.4688,245.0313 L211.4688,247.8281 Z " fill="#000000"/><text fill="#000000" font-family="sans-serif" font-size="12" lengthAdjust="spacing" textLength="114" x="223" y="246.1074">DefaultUserService</text><line style="stroke:#A80036;stroke-width:1.5;" x1="195" x2="339" y1="257.9531" y2="257.9531"/><line style="stroke:#A80036;stroke-width:1.5;" x1="195" x2="339" y1="265.9531" y2="265.9531"/><!--MD5=[3fd616f346a44cd59a91eb10b19e157c]
class User--><rect codeLine="16" fill="#FEFECE" filter="url(#fjt5uptahh4xi)" height="112.0234" id="User" style="stroke:#A80036;stroke-width:1.5;" width="132" x="237" y="520.9531"/><ellipse cx="285.25" cy="536.9531" fill="#ADD1B2" rx="11" ry="11" style="stroke:#A80036;stroke-width:1.0;"/><path d="M287.7188,542.8281 Q287.1406,543.1406 286.5,543.2969 Q285.8594,543.4531 285.1563,543.4531 Q282.6563,543.4531 281.3281,541.7813 Q280.0156,540.1094 280.0156,536.9531 Q280.0156,533.7969 281.3281,532.125 Q282.6563,530.4531 285.1563,530.4531 Q285.8594,530.4531 286.5,530.6094 Q287.1563,530.7656 287.7188,531.0781 L287.7188,533.875 Q287.0938,533.3125 286.5,533.0469 Q285.9063,532.7656 285.2813,532.7656 Q283.9375,532.7656 283.25,533.8281 Q282.5625,534.8906 282.5625,536.9531 Q282.5625,539.0313 283.25,540.0938 Q283.9375,541.1406 285.2813,541.1406 Q285.9063,541.1406 286.5,540.875 Q287.0938,540.6094 287.7188,540.0313 L287.7188,542.8281 Z " fill="#000000"/><text fill="#000000" font-family="sans-serif" font-size="12" lengthAdjust="spacing" textLength="27" x="305.75" y="541.1074">User</text><line style="stroke:#A80036;stroke-width:1.5;" x1="238" x2="368" y1="552.9531" y2="552.9531"/><rect fill="none" height="6" style="stroke:#C82930;stroke-width:1.0;" width="6" x="245" y="560.9531"/><text fill="#000000" font-family="sans-serif" font-size="11" lengthAdjust="spacing" textLength="106" x="257" y="567.1636">integrationId: Long</text><rect fill="none" height="6" style="stroke:#C82930;stroke-width:1.0;" width="6" x="245" y="573.7578"/><text fill="#000000" font-family="sans-serif" font-size="11" lengthAdjust="spacing" textLength="98" x="257" y="579.9683">username: String</text><rect fill="none" height="6" style="stroke:#C82930;stroke-width:1.0;" width="6" x="245" y="586.5625"/><text fill="#000000" font-family="sans-serif" font-size="11" lengthAdjust="spacing" textLength="73" x="257" y="592.7729">name: String</text><rect fill="none" height="6" style="stroke:#C82930;stroke-width:1.0;" width="6" x="245" y="599.3672"/><text fill="#000000" font-family="sans-serif" font-size="11" lengthAdjust="spacing" textLength="72" x="257" y="605.5776">email: String</text><rect fill="none" height="6" style="stroke:#C82930;stroke-width:1.0;" width="6" x="245" y="612.1719"/><text fill="#000000" font-family="sans-serif" font-size="11" lengthAdjust="spacing" textLength="86" x="257" y="618.3823">zipCode: String</text><line style="stroke:#A80036;stroke-width:1.5;" x1="238" x2="368" y1="624.9766" y2="624.9766"/><!--MD5=[70d98a5b6eddfa62f6550e7c1d028c5c]
class UserDao--><rect codeLine="24" fill="#FEFECE" filter="url(#fjt5uptahh4xi)" height="112.0234" id="UserDao" style="stroke:#A80036;stroke-width:1.5;" width="374" x="56" y="348.9531"/><ellipse cx="213.75" cy="364.9531" fill="#B4A7E5" rx="11" ry="11" style="stroke:#A80036;stroke-width:1.0;"/><path d="M210.1719,360.7344 L210.1719,358.4531 L217.5625,358.4531 L217.5625,360.7344 L215.0938,360.7344 L215.0938,369.1875 L217.5625,369.1875 L217.5625,371.4531 L210.1719,371.4531 L210.1719,369.1875 L212.6406,369.1875 L212.6406,360.7344 L210.1719,360.7344 Z " fill="#000000"/><text fill="#000000" font-family="sans-serif" font-size="12" font-style="italic" lengthAdjust="spacing" textLength="50" x="234.25" y="369.1074">UserDao</text><line style="stroke:#A80036;stroke-width:1.5;" x1="57" x2="429" y1="380.9531" y2="380.9531"/><line style="stroke:#A80036;stroke-width:1.5;" x1="57" x2="429" y1="388.9531" y2="388.9531"/><text fill="#000000" font-family="sans-serif" font-size="11" lengthAdjust="spacing" textLength="133" x="62" y="403.1636">create(User user): User</text><text fill="#000000" font-family="sans-serif" font-size="11" lengthAdjust="spacing" textLength="164" x="62" y="415.9683">create(List&lt;User&gt; users): int</text><text fill="#000000" font-family="sans-serif" font-size="11" lengthAdjust="spacing" textLength="194" x="62" y="428.7729">findById(Long id): Optional&lt;User&gt;</text><text fill="#000000" font-family="sans-serif" font-size="11" lengthAdjust="spacing" textLength="236" x="62" y="441.5776">findByExtId(String extId): Optional&lt;User&gt;</text><text fill="#000000" font-family="sans-serif" font-size="11" lengthAdjust="spacing" textLength="362" x="62" y="454.3823">findByIntegrationIds(List&lt;Long&gt; userIntegrationIds): List&lt;User&gt;</text><!--MD5=[ac1963c4d57711ee3b04b1aaf59b0a4f]
reverse link UserService to DefaultUserService--><path codeLine="33" d="M281.65,185.5731 C278.43,199.4931 275.08,214.0031 272.39,225.6231 " fill="none" id="UserService-backto-DefaultUserService" style="stroke:#A80036;stroke-width:1.0;stroke-dasharray:7.0,7.0;"/><polygon fill="none" points="274.84,183.9231,286.17,166.0131,288.49,187.0731,274.84,183.9231" style="stroke:#A80036;stroke-width:1.0;"/><!--MD5=[2e2844cb8fca8edcdfb5fb0753cfb1dd]
link DefaultUserService to UserDao--><path codeLine="34" d="M263.35,274.1931 C260.47,292.6131 256.29,319.2031 252.48,343.5331 " fill="none" id="DefaultUserService-to-UserDao" style="stroke:#A80036;stroke-width:1.0;"/><polygon fill="#A80036" points="251.67,348.6831,257.0136,340.4099,252.4432,343.7433,249.1099,339.1728,251.67,348.6831" style="stroke:#A80036;stroke-width:1.0;"/><!--MD5=[c6c6565f6b801ed1ddf1d2513e24312e]
link UserDao to User--><path codeLine="35" d="M262.48,461.1431 C268.64,478.6031 275.48,497.9831 281.76,515.7731 " fill="none" id="UserDao-to-User" style="stroke:#A80036;stroke-width:1.0;stroke-dasharray:7.0,7.0;"/><polygon fill="#A80036" points="283.51,520.7431,284.2726,510.9238,281.8392,516.0306,276.7325,513.5971,283.51,520.7431" style="stroke:#A80036;stroke-width:1.0;"/><!--MD5=[e454b6428d3e152525845c1b2c50e263]
link UserService to User--><path codeLine="36" d="M333.47,166.1931 C371,196.5231 424.36,247.3531 447,305.9531 C471.83,370.2131 476.87,398.8731 447,460.9531 C431.4,493.3831 401.71,519.5131 373.33,538.6131 " fill="none" id="UserService-to-User" style="stroke:#A80036;stroke-width:1.0;stroke-dasharray:7.0,7.0;"/><polygon fill="#A80036" points="369.15,541.3831,378.8599,539.7344,373.3146,538.6162,374.4328,533.071,369.15,541.3831" style="stroke:#A80036;stroke-width:1.0;"/><!--MD5=[40afa7a2d0c6c2954ed23631c43fea4c]
@startuml

title [Code] User Service

package edu.tec.ic6821.blog {
    package users {

        interface UserService {
            findByUsername(:String): Optional<User>
        }

        class DefaultUserService {}

    }

    package model.users {
        class User {
            - integrationId: Long
            - username: String
            - name: String
            - email: String
            - zipCode: String
        }

        interface UserDao {
            create(User user): User
            create(List<User> users): int
            findById(Long id): Optional<User>
            findByExtId(String extId): Optional<User>
            findByIntegrationIds(List<Long> userIntegrationIds): List<User>
        }
    }

    UserService <|.. DefaultUserService
    DefaultUserService - -> UserDao
    UserDao ..> User
    UserService ..> User

}

@enduml

PlantUML version 1.2021.11(Sat Oct 02 07:26:11 CST 2021)
(GPL source distribution)
Java Runtime: OpenJDK Runtime Environment
JVM: OpenJDK 64-Bit Server VM
Default Encoding: UTF-8
Language: en
Country: US
--></g></svg>